<?xml version="1.0" encoding="iso-8859-1"?>
<!-- Generator: Adobe Illustrator 16.0.0, SVG Export Plug-In . SVG Version: 6.00 Build 0)  -->
<!DOCTYPE svg PUBLIC "-//W3C//DTD SVG 1.1//EN" "http://www.w3.org/Graphics/SVG/1.1/DTD/svg11.dtd">
<svg version="1.1" id="Calque_1" xmlns="http://www.w3.org/2000/svg" xmlns:xlink="http://www.w3.org/1999/xlink" x="0px" y="0px"
	 width="1024px" height="768px" viewBox="0 0 1024 768" style="enable-background:new 0 0 1024 768;" xml:space="preserve">
<g>
	<polygon style="fill:#75D000;" points="-169.888,593.793 -72.354,580.785 -33.344,619.8 96.701,597.047 203.985,662.065 
		164.972,593.793 292.884,568.954 347.993,616.643 434.812,600.294 607.119,561.282 662.387,567.785 753.42,606.797 
		974.507,584.442 1055.77,639.311 1169.556,639.311 1189.062,652.311 1156.551,652.311 229.995,652.311 184.479,675.071 
		73.943,665.316 -95.111,632.808 -134.126,623.053 -179.64,606.797 	"/>
	<polygon style="fill-rule:evenodd;clip-rule:evenodd;fill:#554916;" points="870.759,383.216 866.15,382.634 830.603,198.414 
		488.653,197.588 441.103,464.828 447.141,464.875 457.839,492.23 509.112,501.632 504.312,506.429 501.114,632.849 
		602.502,630.591 629.129,648.05 687.919,643.056 706.74,639.247 739.545,625.648 770.315,640.652 800.711,636.931 814.754,632.849 
		815.551,496.83 880.363,493.626 889.964,466.425 	"/>
	<path style="fill-rule:evenodd;clip-rule:evenodd;fill:#EAF8E9;" d="M600.323-0.837L586.721,9.565l-3.197,13.603
		c0,0-36.006,16-38.411,29.603c-2.397,13.6,3.204,47.205,0,58.409c-3.197,11.202-27.198,28.8-28.801,38.406
		c-1.599,9.598,0.804,36.003,6.404,38.401c2.501,1.075,36.857,19.745,95.696,3.551c9.594-2.64,70.094,3.367,80.144,3.59
		c22.503,0.512,6.095,16.664,31.702,17.477c23.188,0.737,20.857-18.089,23.975-17.879c12.002,0.799,32.716-0.655,44.699,4.88
		c10.567,4.873,15.021-1.219,15.021-1.219S803.548,97.576,797.148,96.774c-6.396-0.799-23.198,4.8-25.6,16.009
		c-2.404,11.195-4.005,31.996-2.404,40.798c1.6,8.805,1.315,5.672,1.315,5.672l-21.511-0.293l1.638-2.703
		c0,0-7.042-33.877-8.644-39.478c-1.598-5.601-17.596-27.204-22.401-28.004c-4.8-0.804-23.209-10.401-38.411-3.203
		c-15.199,7.199-15.199,25.606-36,35.208c-15.322,7.072-16.802-12.804-16.802-12.804s6.126-12.076,3.862-37.646
		c-2.264-25.561-7.865-43.964-11.068-43.964c-3.201,0-7.197-12-7.197-12s-3.999-16.001-8.001-15.204
		C601.924-0.039,600.323-0.837,600.323-0.837z"/>
	<path style="fill-rule:evenodd;clip-rule:evenodd;" d="M141.352,618.136c-0.039,2.446,1.067,4.056,4.609,3.403
		c3.12-0.57,6.324-0.679,9.472-0.998c-0.236-5.255,0.177-5.578,5.222-4.341c5.435-5.629,9.034-13.178,16.09-17.134
		c0.48,0.423,0.959,0.857,1.442,1.285c-4.809,6.204-9.614,12.408-15.246,19.671c7.938,0,14.835,0,21.729,0
		c0.1,0.587,0.192,1.182,0.292,1.773c-1.182,0.406-2.346,1.116-3.543,1.165c-3.825,0.129-7.678-0.146-11.497,0.045
		c-3.17,0.152-6.432,0.37-7.785,4.243c-0.312,0.889-1.612,1.433-2.749,2.377c6.389-0.608,12.454-1.182,19.039-1.808
		c-3.831,3.346-47.349,8.396-51.838,5.606c9.458-1.229,18.918-2.455,28.38-3.678c-0.218-1.762-0.425-3.5-0.705-5.824
		c-3.227,1.038-7.232-0.375-9.75,3.851c-0.642,1.093-3.084,1.493-4.719,1.526c-2.259,0.039-4.582-0.381-6.792-0.949
		c-7.478-1.906-14.714,0.204-21.956,1.358c-13.359,2.126-26.647,4.604-39.983,6.891c-1.197,0.204-2.459,0.025-3.691,0.025
		c-0.047-0.501-0.09-1.014-0.133-1.522c6.933-1.323,13.863-2.645,20.796-3.955c7.007-1.332,14.012-2.646,21.06-3.967
		c-2.37-5.764-2.37-5.764,1.525-9.122c-31.505,2.559-61.815,8.486-92.214,13.695c-0.11-0.563-0.219-1.124-0.328-1.685
		c2.216-0.568,4.406-1.254,6.655-1.696c29.985-5.835,60.109-10.73,90.562-13.35c5.735-0.494,11.463-0.917,17.166-1.616
		c1.048-0.131,2.174-1.272,2.89-2.222c1.664-2.218,3.038-4.638,4.675-6.872c0.304-0.41,1.651-0.62,1.889-0.361
		c0.476,0.514,0.796,1.493,0.66,2.177c-0.222,1.096-1.163,2.096-1.237,3.177c-0.048,0.848,0.577,2.338,1.202,2.518
		c1.796,0.519,4.484,0.198,3.745,2.952C145.941,616.043,143.499,616.752,141.352,618.136z M135.09,622.761
		c-0.276-1.8-0.36-3.209-0.75-4.523c-0.204-0.688-0.984-1.749-1.473-1.733c-5.705,0.189-11.405,0.552-17.101,0.865
		c-0.01,0.399-0.024,0.793-0.029,1.19C121.843,620.923,127.671,624.429,135.09,622.761z"/>
	<path style="fill-rule:evenodd;clip-rule:evenodd;" d="M858.969,649.438c0.54-0.17,1.076-0.458,1.626-0.491
		c31.123-1.671,62.256-3.043,93.435-1.612c7.654,0.356,15.324,0.534,22.989,0.597c2.366,0.016,4.733-0.672,7.107-0.938
		c1.123-0.127,2.559-0.456,3.339,0.065c1.065,0.726,1.637,2.177,2.42,3.311c-1.185,0.726-2.579,2.285-3.523,2.043
		c-12.014-3.025-24.295-1.992-36.452-2.512c-13.727-0.593-27.484-0.954-41.222-0.795c-12.616,0.142-25.227,1.146-37.844,1.684
		c-3.93,0.162-7.876,0.025-11.818,0.025C859.008,650.351,858.986,649.894,858.969,649.438z"/>
	<path style="fill-rule:evenodd;clip-rule:evenodd;" d="M1028.28,622.062c-3.915,0.944-7.783-0.744-10.475-4.184
		c-2.389-3.056-1.988-6.855-0.538-10.468c2.933-7.279,7.862-12.644,15.222-15.709c-0.551,0.487-1.093,0.985-1.662,1.458
		c-0.593,0.489-1.143,1.066-1.818,1.397c-5.109,2.496-6.602,6.719-5.74,12.598c1.792-3.328,3.402-6.302,5.563-10.304
		c0.711,2.748,1.108,4.28,1.752,6.758c2.633-2.196,4.928-4.105,8.058-6.699c-0.426,3.495-0.73,6.036-1.062,8.747
		c0.815,0.165,1.585,0.321,1.302,0.264c-1.049,2.8-2.057,5.493-3.407,9.104c-0.146-2.635-0.245-4.39-0.334-6.117
		c-8.083-0.702-11.107,0.814-14.728,6.952c0.215-4.058,0.434-8.114,0.655-12.086c-2.963,2.896-5.019,9.117-2.778,11.41
		C1021.138,618.083,1025.066,619.927,1028.28,622.062z M1024.459,607.776c11.979-1.025,10.817-0.106,11.744-6.536
		c-5.108,4.397-5.108,4.397-8.958,1.129C1026.375,604.055,1025.524,605.703,1024.459,607.776z"/>
	<path style="fill-rule:evenodd;clip-rule:evenodd;" d="M957.732,616.16c-2.232,3.067-5.08,6.409-8.743,4.184
		c-3.399-2.058-2.344-6.249-1.212-9.454c3.614-10.333,8.144-20.166,17.719-26.54c1.142-0.754,2.551-1.658,3.779-1.587
		c1.858,0.096,4.638,0.501,5.231,1.68c0.663,1.31-0.688,3.633-1.164,5.511c-0.408-0.098-0.82-0.2-1.221-0.296
		c0.449-1.734,0.906-3.463,1.415-5.403c-3.872-1.051-6.788,0.463-9.265,2.663c-7.453,6.628-12.035,15.146-15.287,24.418
		c-0.601,1.709-0.593,3.767-0.362,5.604c0.312,2.552,2.298,2.439,4.101,1.727C954.458,617.989,956.069,617.013,957.732,616.16z"/>
	<path style="fill-rule:evenodd;clip-rule:evenodd;" d="M991.513,604.624c-3.664,2.633-4.625,7.04-8.88,7.164
		c3.082-3.646,6.133-7.242,9.54-11.271c-2.106-0.416-3.237-0.641-4.366-0.866c-0.014-0.448-0.018-0.906-0.028-1.358
		c3.533-0.294,7.064-0.591,10.604-0.886c0.169,0.404,0.336,0.817,0.503,1.225c-4.771,0.246-5.424,3.414-5.697,6.958
		c-0.22,2.845-0.617,5.673-1.675,8.515C991.513,611.149,991.513,608.196,991.513,604.624z"/>
	<path style="fill-rule:evenodd;clip-rule:evenodd;" d="M1032.938,619.913c8.292-3.252,16.07-7.153,21.764-15.218
		C1052.518,612.774,1041.549,619.316,1032.938,619.913z"/>
	<path style="fill-rule:evenodd;clip-rule:evenodd;" d="M967.643,597.761c-0.245,6.842-3.114,12.294-8.143,17.271
		C962.382,608.925,965.018,603.342,967.643,597.761z"/>
	<path style="fill-rule:evenodd;clip-rule:evenodd;" d="M971.844,610.087c-2.274,1.973-4.543,3.956-7.028,6.121
		c-0.591-1.825-0.529-1.79,2.148-3.656c1.438-0.991,2.698-2.229,4.033-3.355C971.277,609.494,971.563,609.791,971.844,610.087z"/>
	<path style="fill-rule:evenodd;clip-rule:evenodd;" d="M468.657,374.043c1.463-0.297,2.918-0.805,4.393-0.864
		c25.674-1.041,51.337-2.335,77.019-2.846c8.035-0.159,16.089,2.099,24.171,2.754c5.054,0.413,10.177-0.207,15.276-0.196
		c17.367,0.068,34.893-1.153,52.057,0.753c13.316,1.478,26.524,3.788,39.958,3.361c15.572-0.49,31.124-1.58,46.688-2.057
		c11.742-0.371,23.506-0.084,35.248-0.32c9.946-0.202,19.895-0.544,29.819-1.205c9.419-0.633,18.663-1.356,28.2,0.266
		c8.427,1.445,17.246,0.588,25.897,0.734c1.266,0.024,2.587-0.243,3.774,0.061c0.909,0.238,1.649,1.161,2.473,1.777
		c-1.016,0.782-2.027,2.226-3.062,2.24c-12.662,0.228-25.199-1.078-37.778-2.588c-7.645-0.919-15.58-0.35-23.295,0.48
		c-10.581,1.145-21.071,1.046-31.696,0.677c-13.893-0.483-27.836,0.467-41.754,0.811c-17.754,0.442-35.515,1.388-53.251,1.136
		c-8.831-0.123-17.622-2.533-26.446-3.746c-15.825-2.17-31.653-0.84-47.485,0.078c-3.435,0.202-6.886,0.949-10.285,0.73
		c-3.983-0.258-7.887-1.466-11.861-1.973c-5.815-0.748-11.682-1.896-17.493-1.708c-20.676,0.653-41.35,1.79-62.018,2.771
		c-5.356,0.253-10.7,0.66-16.057,0.875c-0.867,0.035-1.754-0.562-2.631-0.873C468.568,374.792,468.609,374.422,468.657,374.043z"/>
	<path style="fill-rule:evenodd;clip-rule:evenodd;" d="M839.925,290.699c-3.132,0-6.303,0.309-9.386-0.057
		c-13.107-1.561-26.206-1.59-39.358-0.738c-12.649,0.815-25.312,1.061-37.759-1.99c-12.038-2.956-24.295-3.23-36.563-2.976
		c-12.003,0.256-24.007,1.271-36.004,1.347c-9.938,0.054-19.898-1.3-29.827-1.099c-17.441,0.355-34.863,1.44-52.294,2.167
		c-2.275,0.094-4.841,1.829-7.534-1.309c2.017-0.481,3.391-1.06,4.788-1.114c24.136-0.992,48.275-2.466,72.424-2.717
		c24.649-0.251,49.32,0.39,73.949,1.297c9.394,0.344,18.684,3.334,28.071,3.638c13.512,0.444,27.074-0.623,40.609-0.721
		c7.922-0.06,15.847,0.42,23.765,0.833c1.78,0.094,3.526,0.899,5.288,1.371C840.043,289.319,839.985,290.007,839.925,290.699z"/>
	<path style="fill-rule:evenodd;clip-rule:evenodd;" d="M478.244,285.347c8.148-6.041,49.006-6.674,55.434-2.305
		c-3.27,0.292-6.532,0.703-9.801,0.847c-4.53,0.197-9.064,0.327-13.592,0.241c-3.775-0.078-7.561-0.906-11.305-0.691
		c-5.065,0.28-10.081,1.306-15.131,1.872C481.995,285.518,480.113,285.347,478.244,285.347z"/>
	<path style="fill-rule:evenodd;clip-rule:evenodd;" d="M510.241,587.765c1.149-0.307,2.285-0.78,3.452-0.894
		c14.614-1.445,29.206-3.412,43.864-4.116c26.564-1.291,53.175-1.803,79.768-2.703c6.938-0.241,13.575,2.126,20.2,2.64
		c16.02,1.255,32.2,0.281,48.308,0.608c8.034,0.159,16.033,1.498,24.066,1.816c22.598,0.909,45.206,1.612,67.817,2.284
		c2.264,0.077,4.39,0.056,4.185,2.938c-0.189,2.646-2.18,2.256-4.291,2.229c-10.684-0.129-21.376,0.256-32.053-0.008
		c-4.807-0.114-9.578-1.549-14.405-1.967c-9.282-0.805-18.585-1.39-27.89-1.938c-12.506-0.729-25.008-1.616-37.521-1.881
		c-9.571-0.206-19.167,0.668-28.75,0.59c-2.678-0.023-5.305-1.838-8.014-2.646c-2.391-0.723-4.86-1.697-7.295-1.689
		c-17.124,0.085-34.266-0.004-51.371,0.73c-20.795,0.881-41.57,2.438-62.334,3.898c-4.686,0.331-9.303,1.549-13.979,2.177
		c-1.21,0.157-2.506-0.359-3.762-0.569C510.236,588.762,510.241,588.265,510.241,587.765z"/>
	<path style="fill-rule:evenodd;clip-rule:evenodd;" d="M508.5,536.739c1.393-0.323,2.778-0.881,4.179-0.924
		c30.27-1.032,60.562-3.237,90.806-2.652c32.261,0.63,64.375-2.05,96.577-1.81c4.814,0.03,9.639,1.431,14.435,1.269
		c13.001-0.446,25.992-1.57,38.997-2.057c6.224-0.228,12.472,0.534,18.718,0.555c5.228,0.014,10.46-0.426,15.692-0.604
		c3.832-0.13,7.676-0.316,11.508-0.147c1.363,0.059,2.748,0.995,3.965,1.785c0.208,0.139-0.229,2.111-0.671,2.242
		c-1.413,0.428-2.978,0.524-4.47,0.502c-4.559-0.074-9.12-0.451-13.676-0.367c-6.512,0.114-12.778,1.666-19.577-0.44
		c-5.188-1.61-11.348-0.291-17.066-0.025c-13.886,0.633-27.936,3.131-41.605,1.757c-21.778-2.195-43.316-0.912-64.955,0.213
		c-8.781,0.444-17.515,1.63-26.28,2.437c-0.989,0.091-2.258,0.243-2.976-0.242c-5.289-3.691-11.373-2.378-17.087-2.582
		c-22.371-0.831-44.688,0.126-66.96,2.447c-4.812,0.502-9.691,0.476-14.537,0.521c-1.661,0.016-3.326-0.511-4.989-0.784
		C508.517,537.466,508.509,537.102,508.5,536.739z"/>
	<path style="fill-rule:evenodd;clip-rule:evenodd;fill:#CDA85C;" d="M274.29,211.791c0,0-17.882,99.16,2.845,110.13
		c20.728,10.976,5.954,11.594,5.954,11.594l-20.582,4.662v6.098l-40.233,3.651l-2.845,4.881c0,0-6.907,5.689-16.663,4.064
		c-9.752-1.626-22.755-10.158-30.069-11.783c-7.318-1.625-32.104-14.635-33.324-23.167c-1.22-8.532-8.534-74.365,0.407-94.687
		c8.939-20.317,23.568-60.956,42.67-68.273c19.097-7.317,51.609-11.783,71.929-1.218c20.318,10.563,20.724,7.725,20.724,7.725
		s11.381-15.85,18.694-16.663c7.316-0.813,45.52-3.252,57.303,25.195c11.784,28.444,0,26.415-3.251,26.819
		c-3.251,0.409-34.951,6.912-37.794,6.912C307.208,207.73,274.29,211.791,274.29,211.791z"/>
	<path style="fill-rule:evenodd;clip-rule:evenodd;fill:#7589BA;" d="M194.233,205.291c0,0-20.723,21.943-20.316,43.076
		c0.406,21.13,6.492,23.849,9.338,25.539c2.847,1.686,7.727-2.375,9.758-5.221c2.034-2.845,15.039-30.88,15.039-34.947
		c0-4.065-2.035,21.129-2.035,21.129l8.942,1.625l14.632,17.477l8.125-0.813c0,0,13.003-36.979,6.907-47.953
		c-6.095-10.973-14.221-14.225-14.221-14.225s-12.042,7.041-13.54,19.778c-1.5,12.734-6.78,8.672-6.78,9.074
		c0,0.409-2.441-12.597-2.441-12.597S206.018,204.881,194.233,205.291z"/>
	<path style="fill-rule:evenodd;clip-rule:evenodd;" d="M186.896,292.445c8.467-1.61,9.592-8.862,11.664-14.923
		c2.672-7.815,4.453-15.937,6.476-23.962c0.261-1.016-0.365-2.25-0.583-3.384c-0.374,0.015-0.747,0.021-1.119,0.038
		c-1.202,3.423-2.146,6.969-3.677,10.244c-1.661,3.566-3.57,7.097-5.905,10.24c-3.337,4.515-5.11,4.526-10.496,3.207
		c-6.796-1.662-9.066-6.881-9.471-12.572c-1.223-17.426,1.749-34.093,11.071-49.213c1.057-1.719,2.413-3.322,3.906-4.679
		c4.837-4.397,10.697-3.911,14.62,1.329c4.378,5.848,5.233,12.907,6.25,19.319c2.815,1.042,5.442,2.007,7.231,2.668
		c2.148-5.183,3.964-11.173,6.996-16.466c3.473-6.083,8.327-6.231,13.712-1.621c1.316,1.13,3.104,1.804,4.771,2.412
		c1.806,0.659,3.159,1.222,1.806,3.496c-0.362,0.607-0.493,1.719-0.181,2.304c5.609,10.412,4.032,21.312,2.256,32.216
		c-0.449,2.773-1.225,5.49-1.643,8.265c-0.984,6.537-4.939,11.073-9.851,14.982c-2.52,2.016-4.952,2.445-7.343-0.348
		c-3.475-4.067-7.184-7.94-10.537-12.1c-1.135-1.413-1.482-3.455-2.488-5.955c-0.291,1.877-0.834,3.251-0.65,4.522
		c0.904,6.179,1.721,12.398,3.121,18.476c1.019,4.441,2.569,4.939,7.205,3.811c0.437-0.106,0.957,0.146,2.088,1.214
		c-1.414,1.077-2.855,3.077-4.222,3.023c-2.458-0.084-4.978-1.185-7.238-2.323c-0.93-0.472-1.536-2.078-1.812-3.274
		c-2.212-9.619-5.775-19.113-3.056-29.312c-1.553,5.284-3.009,10.599-4.681,15.833c-2.023,6.311-3.879,12.712-6.536,18.749
		c-1.103,2.506-3.884,4.48-6.278,6.152C190.43,296.131,188.404,295.405,186.896,292.445z M193.299,221.99
		c-8.343,4.702-10.357,15.398-4.504,24.591c3.371-2.472,6.722-4.938,9.828-7.217C196.792,233.383,195.047,227.689,193.299,221.99z
		 M241.786,240.982c-2.872-4.231-5.616-8.277-8.419-12.405c-1.395,1.092-2.699,1.918-3.755,2.991
		c-0.901,0.909-2.296,2.224-2.156,3.161c0.725,4.821,1.883,9.582,3.046,15.106C234.688,246.551,238.149,243.844,241.786,240.982z
		 M180.831,225.053c1.372,1.088,2.306,1.835,3.134,2.495c2.175-2.655,4.179-5.474,6.566-7.92c1.569-1.602,2.396-2.908,1.882-5.305
		c-0.32-1.475,0.635-3.223,1.018-4.856c0.458,0.032,0.917,0.054,1.382,0.085c0.685,1.974,1.376,3.951,2.172,6.237
		c1.756-0.872,3.391-1.677,5.008-2.478c-3.759-8.081-10.461-5.681-13.722-0.997C185.596,216.151,183.51,220.405,180.831,225.053z
		 M239.607,266.251c1.339-7.127,2.585-13.691,3.933-20.849c-12.364,6.344-13.463,10.817-5.615,19.816
		C238.082,265.4,238.345,265.487,239.607,266.251z M235.937,269.532c-1.677-2.272-3.301-4.254-4.665-6.388
		c-1.409-2.207-2.568-4.57-3.945-7.066c-2.527,1.872-4.739,3.512-7.323,5.427c2.759,2.954,5.334,5.574,7.76,8.333
		C231.804,274.426,232.005,274.455,235.937,269.532z M202.978,215.968c-1.863,1.796-4.878,3.461-4.737,4.791
		c0.51,4.9,2.082,9.691,3.397,15.139C207.1,230.269,207.328,225.197,202.978,215.968z M185.425,253.771
		c-1.551,2.462-3.45,4.508-4.178,6.915c-0.838,2.746-0.131,6.119,2.769,7.152c1.39,0.494,3.907-1.405,5.57-2.672
		c1.21-0.922,1.867-2.582,2.683-3.792C189.956,258.804,187.932,256.562,185.425,253.771z M220.146,251.444
		c-0.492,2.238-0.844,3.841-1.199,5.447c2.782-1.04,4.685-2.289,6.392-3.761c0.625-0.544,1.196-1.719,1.059-2.462
		c-0.833-4.465-1.877-8.891-2.887-13.538C220.514,240.165,218.731,249.112,220.146,251.444z M229.376,214.034
		c-6.162,3.356-6.455,7.638-2.475,16.378c1.839-2.399,4.562-4.38,4.709-6.532C231.822,220.676,230.223,217.357,229.376,214.034z
		 M194.294,257.108c1.429-4.192,2.777-8.163,4.378-12.862C188.682,249.825,188.347,250.96,194.294,257.108z M179.922,254.894
		c5.579-4.498,5.669-5.95,1.013-15.036C178.651,245.008,180.13,249.801,179.922,254.894z M213.328,249.987
		c-1.449-4.878-2.59-8.742-3.743-12.595c-0.787,2.13-4.19,3.57-1.313,6.349c1.023,0.986,1.208,2.849,1.775,4.303
		c-0.257,0.18-0.505,0.368-0.767,0.551C210.301,248.943,211.32,249.292,213.328,249.987z M241.961,233.957
		c0.417-0.144,0.834-0.294,1.254-0.44c-1.254-3.606-2.503-7.213-3.755-10.824c-0.519,0.187-1.033,0.37-1.555,0.55
		C236.432,227.81,240.479,230.428,241.961,233.957z"/>
	<path style="fill:#ECEFD8;" d="M311.544,206.646c0,0,10.565,36.306,23.841,34.407c13.276-1.894,17.61-3.521,20.05-0.27
		c2.436,3.25,4.332,12.194,0.812,13.276c-3.523,1.084-7.315,2.44-6.775,3.522c0.541,1.081,16.798,24.382,12.193,30.612
		c-4.604,6.232-26.553,5.693-35.492,7.588c-8.937,1.895-18.965,12.733-18.694,14.355c0.269,1.626-2.711,13.009,4.334,14.087
		c7.046,1.089,23.028,3.251,24.111,3.525c1.086,0.274-2.98,8.127-2.98,8.127s-30.884,19.234-47.407,19.509
		c-16.529,0.267-4.337,2.978-4.337,2.978l1.625,9.209l5.688,8.401l10.297,5.148l5.419,13.548l-5.147,4.604l-41.455-15.714
		c0,0-5.417-11.108-5.688-12.734c-0.27-1.628-2.979-17.878-7.045-18.692c-4.06-0.811-6.229-5.69-6.229-5.69h15.172l6.501-2.438
		l6.012-4.213l8.889-2.017l7.861-1.354c0,0-0.273,0.27,2.709-4.337c2.979-4.603-2.74-7.135-2.74-7.135l-14.331-11.288l-2.169-21.673
		l5.688-76.944l5.42-5.417L311.544,206.646z"/>
	<path style="fill-rule:evenodd;clip-rule:evenodd;" d="M318.053,245.025c-0.749,3.244-1.257,6.513-2.354,9.565
		c-0.349,0.968-2.446,2.088-3.431,1.85c-1.016-0.252-2.453-2.173-2.32-3.175c0.538-3.988,1.472-7.945,2.56-11.824
		c0.31-1.078,1.659-1.866,2.522-2.783c0.833,1.012,1.873,1.924,2.433,3.062C317.946,242.695,317.885,243.941,318.053,245.025z"/>
	<path style="fill:#FF93A4;" d="M115.667,398.189l25.468,3.787c0,0,14.088,1.625,24.382,1.625c10.298,0,26.009-0.535,34.68-3.786
		c8.667-3.251,30.886-2.711,32.511-2.169c1.625,0.543,22.751-7.034,24.92-14.085c2.168-7.045,11.384,3.791,11.384,3.791
		l21.671,9.213l12.467,2.707l1.081-4.6l5.419-0.277c0,0,47.682,61.223,48.222,68.269c0.545,7.05-3.248,4.337-3.248,4.337
		s24.62,48.042,28.566,49.758c3.941,1.719,1.234,5.511,1.234,5.511s3.79-0.541,8.669,0c4.874,0.542,18.425,11.92,22.214,15.168
		c3.792,3.255-7.585,3.255-7.585,3.255l-78.568,16.8l-53.104,6.5l-24.38-2.169l-86.154-7.042l-4.876-1.082l7.043-14.63l37.386-4.88
		l15.177-5.415l2.705-29.263l-1.082-11.917l7.044-43.895l-36.301-3.792l-36.848,1.084l-11.379,9.753l-28.175-10.295l6.091-26.072
		l-13.68,2.771l-4.332-2.703v-10.302l2.169-2.703L115.667,398.189z"/>
	<path style="fill:#ECEFD8;" d="M117.293,400.355c0,0,79.11,3.788,83.986,1.621c4.874-2.161,9.363,28.184,0.073,34.684
		c-9.288,6.503-19.037,5.419-19.037,5.419h-32.513c0,0-4.874,9.208-8.125,9.208c-3.252,0-7.592-1.625-8.674-3.795
		c-1.08-2.168-2.239-5.188-6.806-4.491c-4.568,0.698-11.073-3.094-10.53-4.721c0.544-1.623,1.086-10.831,3.795-14.087
		c2.711-3.252-3.701-12.973-3.701-12.973s-10.926,8.096-11.471,3.225c-0.542-4.882,3.79-12.463,5.958-13.005
		c2.167-0.542,5.418-3.251,5.418-3.251"/>
	<path style="fill:#47521A;" d="M258.176,565.074l-0.21,1.605l-2.788,21.064l-1.88,14.177l-1.084,7.584H218.62l-28.717,14.63
		l-1.624,7.587c0,0,48.219,2.709,80.191-5.962c31.969-8.669,96.991,7.589,106.748,4.878c9.75-2.71,27.087-5.96,25.462-9.209
		c-1.625-3.255-22.217-14.632-29.804-14.093c-7.583,0.544-36.301-1.079-39.012-0.539c-2.708,0.539,8.129-4.876,8.129-4.876
		l-10.837-44.43L258.176,565.074z"/>
	<path style="fill:#ECEFD8;" d="M328.612,561.822l3.793,4.338l4.879,24.925l-41.184,4.336c0,0-35.821-5.673-37.958-4.191
		c-2.135,1.48-2.135-5.564-2.135-5.564l2.168-20.591L328.612,561.822z"/>
	<path style="fill-rule:evenodd;clip-rule:evenodd;" d="M355.117,257.909c2.297,3.584,4.523,6.786,6.479,10.142
		c3.28,5.634,4.06,11.919,3.82,18.255c-0.293,7.513-7.537,11.157-13.155,11.658c-4.761,0.423-9.641-0.614-14.435-0.322
		c-11.527,0.694-22.134,3.126-27.22,14.202c-2.669,5.846-0.439,10.378,5.938,11.192c5.287,0.682,10.667,1.044,15.995,0.928
		c7.106-0.145,9.479,2.676,6.432,8.974c-1.397,2.907-3.322,5.85-5.739,7.914c-6.212,5.303-12.995,9.435-21.362,11.147
		c-8.176,1.671-16.078,4.752-24.018,7.441c-0.931,0.321-2.065,2.191-1.906,3.158c0.894,5.738,2.154,11.176,9.072,13.124
		c4.72,1.331,7.203,5.522,9.142,9.801c2.67,5.876,7.727,8.479,12.713,10.344c0.972,1.934,1.588,3.857,2.738,5.381
		c10.856,14.352,21.981,28.514,32.645,43.011c3.831,5.206,6.766,11.106,9.842,16.831c2.354,4.396,1.804,5.404-3.17,6.965
		c3.477,8.087,6.857,16.172,10.445,24.169c1.79,3.994,4.28,7.464,7.17,10.895c3.167,3.759,4.753,8.933,6.649,13.64
		c0.985,2.453,2.273,3.332,4.818,3.07c7.685-0.8,14.599,2.383,20.579,6.188c4.803,3.049,8.058,8.589,11.811,13.181
		c0.609,0.754,0.738,2.774,0.179,3.372c-0.596,0.657-2.434,0.751-3.422,0.344c-2.711-1.108-4.688-0.016-7.119,1.078
		c-5.64,2.527-11.053,5.482-17.757,5.362c-6.176-0.109-12.377,1.424-18.576,2.13c-1.88,0.218-3.944,0.59-5.671,0.049
		c-4.471-1.397-8.382-0.074-12.635,1.142c-5.831,1.67-11.921,2.551-17.963,3.382c-2.972,0.407-4.381,0.863-3.578,4.437
		c1.803,7.974,3.164,16.041,4.619,24.088c0.394,2.184,0.877,3.804,3.652,3.929c1.029,0.048,1.995,1.526,2.987,2.349
		c-0.952,0.684-1.814,1.738-2.868,1.978c-3.013,0.68-1.76,2.465-1.353,4.13c0.433,1.793,0.965,3.229,3.336,2.387
		c1.279-0.457,2.669-0.607,4.011-0.898c0.227,0.364,0.454,0.728,0.681,1.092c-1.258,1.612-2.513,3.228-4.129,5.308
		c6.36,0.266,12.432,0.266,18.441,0.835c9.616,0.909,19.494,0.472,28.642,4.161c3.196,1.286,6.102,3.509,8.799,5.727
		c2.841,2.339,5.272,5.186,8.149,8.066c0.986-0.061,2.367-0.145,3.839-0.23c-1.034-6.915-0.318-13.473,2.162-19.865
		c4.141,4.517,1.754,10.096,3.227,15.084c4.182-2.598,8.352-5.197,12.794-7.958c1.673,4.354-1.611,4.817-3.139,6.308
		c-1.676,1.628-3.515,3.086-5.28,4.62c0.146,0.328,0.288,0.66,0.429,0.989c7.671-0.617,15.331-1.233,23-1.848
		c1.009-6.231-0.617-12.538,2.448-18.015c0.424-0.071,0.856-0.143,1.279-0.215c0.643,1.231,1.498,2.404,1.866,3.71
		c0.49,1.703,0.726,3.508,0.832,5.285c0.558,8.89,0.529,8.872,9.22,8.032c3.678-0.357,7.365-0.601,11.192-0.909
		c2.865-9.079,4.582-18.738,11.058-26.454c3.131,1.16,2.573,3.245,1.949,5.417c-1.907,6.632-3.915,13.231-5.62,19.914
		c-0.804,3.186-1.016,6.515-1.529,9.938c1.548,0.414,2.834,0.754,4.239,1.128c-1.54,1.574-3.672,2.776-4.038,4.385
		c-0.439,1.908,0.646,4.164,1.084,6.391c1.162,0.057,2.168,0.211,3.161,0.137c3.42-0.258,6.828-0.609,11.081-0.999
		c-1.277-6.058-2.493-11.845-3.712-17.631c0.628-0.22,1.261-0.447,1.89-0.67c1.745,2.924,3.492,5.85,5.089,8.522
		c1.816-3.896,5.188-114.417,3.714-128.931c-0.396-0.134-0.853-0.431-1.311-0.438c-10.438-0.18-20.88-0.314-31.315-0.518
		c-1.123-0.024-2.259-0.389-3.352-0.73c-2.984-0.924-5.772-1.572-8.594,0.816c-2.184,1.855-4.394,0.846-5.919-1.263
		c-5.497-7.596-8.411-16.479-10.389-25.329c-1.918-8.534-2.397-17.616,0.701-26.253c4.598-12.797,6.923-26.021,8.586-39.49
		c1.294-10.467,3.938-20.747,5.797-31.157c0.49-2.741,0.057-5.648,0.521-8.398c1.391-8.176,3.044-16.302,4.537-24.459
		c3.309-18.07,6.555-36.148,9.86-54.21c4.002-21.86,7.901-43.746,12.12-65.562c1.501-7.76,3.806-15.367,5.753-23.044
		c0.187-0.735,0.848-1.66,0.602-2.153c-2.423-4.874,1.594-5.447,4.291-5.599c6.723-0.382,13.488-0.076,20.236-0.058
		c3.431,0.011,6.865,0,10.065,0c-2.299-3.119-5.218-5.998-6.849-9.484c-4.789-10.253-7.576-20.903-3.1-32.097
		c0.849-2.115,0.527-3.36-1.159-4.962c-1.585-1.514-2.657-3.685-3.535-5.742c-0.298-0.7,0.671-1.939,1.064-2.929
		c0.927,0.505,2.094,0.818,2.733,1.563c1.272,1.472,2.25,3.187,3.307,4.736c4.738-4.912,8.982-9.417,13.363-13.775
		c1.395-1.389,3.471-2.144,4.728-3.616c2.28-2.676,4.8-5.414,6.12-8.581c3.994-9.524,4.453-19.376,2.106-29.539
		c-4.489-19.444-0.812-37.232,13.161-51.83c4.517-4.719,10.906-7.72,16.626-11.202c4.161-2.524,8.632-4.547,12.44-6.521
		c0-3.059-0.159-5.946,0.035-8.8c0.27-3.973,2.507-6.615,6.185-7.998c7.065-2.668,14.114-4.702,21.171,0.144
		c5.475,3.754,7.878,10.253,5.541,16.458c-0.721,1.922-0.16,2.544,1.123,3.745c4.357,4.077,8.787,8.141,12.678,12.644
		c5.611,6.494,6.672,14.622,7.368,22.868c0.603,7.287,0.668,14.339-1.181,21.613c-1.871,7.378-2.487,15.141-3.016,22.782
		c-0.38,5.52,1.088,10.876,4.592,15.984c0.953-1.28,1.746-2.344,2.551-3.44c0.215,0,0.535-0.098,0.699,0.018
		c4.786,3.426,7.892,2.652,11.756-2.896c2.76-3.96,5.236-8.183,8.412-11.775c3.843-4.356,7.837-8.825,12.57-12.091
		c9.838-6.797,20.506-10.617,33.004-7.647c9.842,2.338,18.304,7.092,26.176,12.936c3.132,2.321,5.771,5.998,7.326,9.615
		c3.656,8.464,7.92,16.731,8.799,26.267c0.484,5.223,2.617,10.282,3.678,15.481c0.713,3.489,0.627,7.135,1.371,10.615
		c0.258,1.213,1.79,2.787,2.997,3.044c3.833,0.844,7.786,1.139,12.373,1.739c-1.306-5.023-2.567-9.451-3.592-13.928
		c-3.002-12.972-4.929-25.902,2.056-38.357c3.017-5.375,7.348-8.75,12.919-11.742c4.533-2.436,8.411-1.816,12.682-1.707
		c4.678,0.12,7.176,2.474,8.386,6.977c0.652,2.44,1.956,4.697,2.652,7.127c1.18,4.132,2.238,8.308,3.116,12.512
		c1.217,5.829,2.164,11.71,3.306,17.554c0.45,2.236,1.476,4.405,1.626,6.65c0.706,10.683,1.305,21.375,1.729,32.072
		c0.232,5.794,0.037,11.604,0.037,17.459c8.698,1.445,17.861-2.812,25.938,3.314c-3.811,3.873-1.339,7.903-0.728,11.706
		c1.448,8.947,3.24,17.84,4.979,26.732c2.649,13.535,5.497,27.03,8.017,40.584c0.979,5.252,1.175,10.64,1.934,15.927
		c1.223,8.581,2.114,17.254,4.094,25.671c1.427,6.096,2.579,12.095,3.308,18.333c0.755,6.459,3.359,12.703,5.155,19.042
		c0.555,1.962,1.257,3.889,1.613,5.878c1.525,8.515,2.896,17.061,4.422,25.575c0.603,3.382,1.49,6.71,2.18,10.074
		c2.204,10.849,3.622,21.93,6.797,32.488c2.549,8.488,2.796,17.322,5.411,25.709c0.384,1.213,0.412,2.66,1.121,3.62
		c4.474,6.121,2.118,12.229,0.212,18.374c-1.761,5.684-3.497,11.381-5.303,17.054c-0.338,1.065-0.724,2.708-1.46,2.946
		c-3.614,1.169-6.441,4.234-11.145,2.896c-4.688-1.339-9.854-1.319-14.813-1.361c-11.744-0.095-23.494,0.278-35.239,0.139
		c-3.423-0.046-4.342,1.792-4.453,4.313c-0.331,7.896-0.627,15.812-0.519,23.717c0.139,10.344,0.711,20.687,1.028,31.03
		c0.415,13.652,0.724,27.312,1.149,40.961c0.182,6.095,0.506,12.173,0.814,18.261c0.192,3.821,0.465,7.645,0.719,11.828
		c1.49-0.636,2.67-1.137,3.848-1.638c0.261,0.188,0.514,0.372,0.77,0.554c-1.433,2.803-2.871,5.598-4.845,9.446
		c7.527-1.39,14.036,1.472,20.468-5.336c10.451-11.051,19.735-22.705,27.486-35.704c0.681-1.143,1.739-2.063,3.503-2.698
		c-0.366,1.33-0.417,2.87-1.139,3.961c-6.118,9.246-12.31,18.452-18.584,27.595c-2.403,3.498-5.088,6.792-7.275,10.69
		c10.294-1.388,21.427,1.949,29.368-6.954c0.89,0.618,1.594,1.539,2.312,1.549c3.294,0.043,6.546-1.518,9.888,0.896
		c1.073,0.779,3.634-0.514,5.508-0.854c2.266-0.41,4.513-1.095,6.78-1.108c1.299-0.01,3.299,0.771,3.714,1.736
		c0.397,0.947-0.66,2.678-1.372,3.889c-0.555,0.922-1.576,1.564-2.382,2.338c0.04,0.403,0.068,0.815,0.102,1.219
		c4.522,0,9.038-0.051,13.55,0.015c6.652,0.109,13.299,0.392,19.945,0.417c2.656,0.014,5.313-0.672,7.949-0.574
		c0.959,0.043,1.869,1.45,2.802,2.233c-1.099,0.794-2.233,2.305-3.284,2.25c-4.287-0.216-8.532-1.281-12.817-1.365
		c-18.736-0.38-37.48-0.392-56.229-0.848c-4.986-0.119-8.684,2.52-12.814,4.334c-2.448,1.073-4.681,2.637-7.11,3.778
		c-1.72,0.805-3.557,1.585-5.412,1.796c-1.21,0.139-2.533-0.761-3.812-1.195c0.674-1.108,1.127-2.48,2.078-3.25
		c1.03-0.831,2.481-1.164,3.797-1.601c2.519-0.838,5.063-1.6,7.595-2.389c-0.049-0.369-0.094-0.739-0.135-1.111
		c-1.754,0.105-3.508,0.189-5.257,0.314c-11.211,0.794-22.425,1.531-33.625,2.467c-1.329,0.109-3.01,1.03-3.757,2.108
		c-2.093,3.006-3.673,6.371-5.673,9.445c-0.748,1.158-2.231,2.802-3.158,2.667c-1.296-0.18-2.823-1.595-3.468-2.877
		c-1.263-2.477-1.972-5.23-2.986-8.067c-6.503,1.946-11.771,6.737-18.636,7.004c2.759-5.47,8.72-5.547,13.757-8.565
		c-2.435-0.152-4.146-0.256-5.859-0.365c-0.007-0.337-0.016-0.684-0.018-1.037c3.166-0.375,6.328-0.752,9.5-1.135
		c0.2-0.306,0.409-0.61,0.617-0.909c-0.893-0.671-1.784-1.913-2.666-1.913c-7.777,0.066-15.606-0.076-23.314,0.763
		c-3.167,0.347-6.101,2.915-9.101,4.548c-0.768,0.42-1.355,1.16-2.033,1.744c-6.744,5.809-10.131,5.04-13.738-3.118
		c-0.301-0.691-0.603-1.377-1.084-2.474c-13.703,1.033-27.469,1.883-41.182,3.248c-3.433,0.344-6.686,2.422-10.059,3.597
		c-2.043,0.721-3.93,0.849-5.309-1.503c-0.389-0.662-1.884-1.028-2.824-0.953c-6.234,0.464-12.452,1.1-18.676,1.654
		c-11.297,1.024-22.586,2.032-33.871,3.036c-3.185,0.284-6.352,0.599-9.545,0.788c-1.941,0.121-3.896,0.022-5.842,0.022
		c-0.011-0.42-0.018-0.84-0.029-1.264c13.807-1.404,27.607-2.806,41.277-4.199c-0.359-2.893-0.699-5.616-1.083-8.749
		c-7.224,0.501-14.55,0.427-21.62,1.732c-3.932,0.722-7.365,3.891-11.142,5.709c-2.747,1.313-5.638,2.376-8.561,3.219
		c-1.237,0.359-2.823,0.145-4.075-0.304c-1.967-0.7-3.604-1.802-1.309-4.105c0.552-0.557,0.637-1.571,1.123-2.891
		c-6.507,0.795-12.749,0.863-18.538,2.52c-3.675,1.052-6.528,4.737-10.036,6.717c-2.426,1.365-5.306,2.154-8.082,2.539
		c-0.935,0.135-2.152-1.716-3.248-2.663c0.884-0.994,1.596-2.287,2.693-2.902c1.707-0.958,3.68-1.451,5.432-2.56
		c-19.34,1.55-38.504,4.354-58.056,4.533c9.656,0.838,15.251-5.024,21.298-12.135c-9.392,0.922-18.002,1.07-26.252,2.883
		c-3.835,0.841-7.699,4.352-10.227,7.667c-3.793,4.96-6.112,3.838-9.815-0.584c-1.34-1.597-1.995-3.773-3.112-5.983
		c-11.605,0.883-23.396,1.789-35.19,2.692c-0.049-0.461-0.104-0.913-0.16-1.375c4.86-0.538,9.717-1.069,14.671-1.621
		c-0.645-2.803-1.286-5.585-2.077-9.024c-3.148,0.476-6.48,0.965-9.801,1.526c-0.418,0.065-1.043,0.461-1.116,0.805
		c-1.061,5.091-4.17,3.251-6.474,1.562c-2.278-1.669-4.308-1.988-7.056-1.623c-16.08,2.119-32.196,4.043-48.313,5.907
		c-2.831,0.317-5.729,0.006-8.596-0.01c0-0.49,0.005-0.977,0.008-1.457c19.681-2.188,39.361-4.372,59.385-6.595
		c-0.927-2.782-1.753-5.272-2.738-8.229c-3.387,0.227-6.894,0.396-10.378,0.701c-8.392,0.745-16.783,1.426-25.147,2.407
		c-2.131,0.254-4.131,1.534-6.21,2.321c-2.008,0.757-4.001,1.558-6.049,2.22c-12.246,3.987-24.78,4.259-37.458,3.013
		c-4.572-0.438-9.178-0.402-13.757-0.742c-9.255-0.701-18.492-1.619-27.749-2.219c-4.824-0.316-9.692-0.34-14.524-0.168
		c-10.8,0.397-21.719,0.142-32.359,1.699c-18.555,2.703-37.189,2.44-55.795,3.323c-8.885,0.423-17.61,0.242-26.234-1.911
		c-6.348-1.584-6.809-2.819-3.855-8.687c5.72-11.353,15.589-16.653,27.592-17.914c8.185-0.854,16.501-0.37,24.763-0.494
		c0.769-0.007,1.539-0.007,2.305,0c9.131,0.076,9.42-0.172,10.358-9.5c-1.099-0.347-2.236-0.697-3.468-1.077
		c0.156-0.582,0.18-1.192,0.344-1.232c4.938-1.17,4.77-5.129,4.979-8.941c0.394-7.004,0.862-14,1.312-21.138
		c-5.948-0.555-11.365-1.167-16.797-1.539c-12.728-0.874-25.46-1.699-38.192-2.425c-10.639-0.6-21.287-1.091-31.93-1.499
		c-4.488-0.174-8.536-1.273-12.532-4.599c5.553-5.979,6.106-15.605,15.103-18.82c2.388-0.858,4.769-1.764,7.209-2.462
		c3.654-1.056,7.349-1.962,11.029-2.938c4.112-1.077,8.058-1.964,12.375-0.115c4.502,1.92,9.06,0.589,13.11-1.912
		c0.852-0.523,1.402-2.024,1.541-3.146c0.967-7.958,1.627-15.949,2.703-23.891c1.821-13.555,3.922-27.076,5.776-40.623
		c0.432-3.159,0.46-6.383,0.469-9.572c0.022-6.03,1.376-5.448-5.528-6.758c-8.342-1.584-16.712-1.537-24.512,3.114
		c-2.172,1.294-5.063,1.653-7.669,1.838c-1.568,0.11-3.206-0.957-4.819-1.491c0.733-1.309,1.465-2.625,2.354-4.217
		c-5.098,0-10.287,0.064-15.481-0.018c-4.58-0.07-9.166-0.469-13.736-0.33c-1.458,0.047-3.756,1.033-4.171,2.148
		c-2.305,6.143-8.284,9.311-14.834,7.24c-1.55-0.49-3.66-1.057-4.317-2.246c-1.783-3.287-4.626-3.229-7.615-3.534
		c-1.614-0.17-3.237-0.808-4.738-1.491c-5.669-2.577-7.888-7.428-5.912-13.155c0.924-2.651,2.781-5.072,3.2-7.763
		c0.38-2.397-0.633-5.012-1.087-7.836c-1.131,0.239-2.705,0.629-4.291,0.883c-4.364,0.686-7.693-1.02-9.489-4.793
		c-1.703-3.568-0.787-6.744,2.458-9.889c6.776-6.568,14.542-6.928,23.114-4.441c5.713,1.646,11.517,1.974,17.626,1.301
		c5.274-0.577,10.772,1.341,16.196,1.528c10.824,0.367,21.685,2.417,32.479-0.323c0.491-0.122,0.983-0.242,1.463-0.367
		c-0.54-3.984-0.057-4.273,3.904-4.137c10.305,0.352,20.622,0.798,30.924,0.569c4.348-0.104,8.664-1.822,13.41-2.899
		c-0.838-2.201-1.626-4.047-2.234-5.944c-0.509-1.567-1.021-3.185-1.169-4.822c-0.511-5.71,1.075-7.596,6.698-8.221
		c1.5-0.16,3.007-0.24,4.87-0.391c-0.672-4.454-0.727-8.912-2.14-12.889c-1.026-2.87-3.346-6.21-5.967-7.4
		c-6.792-3.089-14.069-5.096-23.126-3.622c2.11,1.07,3.467,1.763,4.822,2.45c0.076,0.579,0.152,1.156,0.228,1.733
		c-0.992,0.518-1.952,1.102-2.979,1.552c-13.812,6.013-32.373,2.587-43.286-7.863c-0.886-0.844-2.33-1.378-3.579-1.512
		c-9.255-0.969-18.224-3.117-25.494-9.09c-3.636-2.979-6.194-7.336-9.004-11.237c-5.127-7.125-6.742-15.508-7.896-23.95
		c-2.432-17.68-2.22-35.317,1.041-52.911c1.229-6.642,1.595-13.461,3.061-20.042c1.442-6.449,3.898-12.671,5.702-19.051
		c4.184-14.746,12.56-27.342,20.676-40.016c4.28-6.676,10.245-11.816,17.612-15.168c4.198-1.907,8.195-4.328,12.497-5.926
		c3.398-1.26,7.098-1.885,10.719-2.338c5.451-0.689,10.768-2.278,16.476-0.82c3.679,0.936,7.819-0.06,11.578,0.667
		c7.4,1.427,14.885,2.57,21.8,6.061c5.217,2.635,10.807,4.547,16.275,6.667c2.721,1.052,5.131,0.789,7.03-1.922
		c7.063-10.009,16.687-14.57,29.037-14.437c4.684,0.054,9.078,0.075,13.79,1.095c9.739,2.097,17.77,7.03,25.125,13.094
		c3.192,2.635,5.362,6.812,7.226,10.66c2.175,4.498,3.398,9.441,5.233,14.112c2.929,7.435,0.011,15.895-6.716,20.05
		c-8.949,5.52-18.633,4.477-28.286,3.432c-5.923-0.632-7.879,1.145-6.125,6.591c1.582,4.93,2.853,10.126,5.414,14.53
		c3.015,5.177,6.047,11.307,13.629,11.019c2.288-0.09,4.773-0.686,6.768-1.783c10.785-5.923,19.374,3.446,20.165,12.876
		c0.165,2.016-1.864,4.49-3.427,6.274C358.672,256.771,356.658,257.169,355.117,257.909z M446.853,468.699
		c15.032,0,29.589,0.017,44.145-0.012c3.833-0.015,7.669-0.245,11.503-0.263c10.963-0.051,21.926,0.067,32.892-0.095
		c8.171-0.117,16.342-0.533,24.507-0.854c10.085-0.397,20.171-1.259,30.249-1.151c16.59,0.188,33.176,1.117,49.771,1.475
		c8.542,0.182,17.086-0.287,25.633-0.301c15.861-0.028,31.721,0.055,47.578,0.113c3.067,0.011,6.14,0.109,9.21,0.244
		c14.013,0.627,28.016,1.329,42.026,1.9c5.478,0.223,10.965,0.094,16.448,0.243c3.702,0.102,7.396,0.619,11.089,0.569
		c28.383-0.372,56.766-0.819,85.15-1.306c1.892-0.031,3.774-0.515,5.676-0.722c2.989-0.321,3.355-1.8,2.493-4.478
		c-1.193-3.736-2.066-7.591-2.858-11.438c-1.354-6.592-2.431-13.239-3.821-19.825c-1.844-8.725-3.98-17.396-5.803-26.13
		c-1.716-8.236-3.121-16.539-4.786-24.788c-1.396-6.842-2.83-13.684-4.516-20.466c-1.66-6.661-4.086-13.157-5.411-19.875
		c-1.993-10.124-3.235-20.404-4.957-30.585c-3.729-22.046-7.532-44.083-11.38-66.11c-2.455-14.082-5.048-28.147-7.581-42.214
		c-0.372-2.084-0.871-4.258-3.508-4.217c-4.536,0.077-9.072,0.434-13.486,0.666c-0.885,6.881-2.211,7.83-8.649,6.703
		c-4.512-0.796-9.001-1.705-13.528-2.4c-7.77-1.197-15.562-2.307-23.36-3.378c-5.406-0.752-10.826-1.372-15.862-2.005
		c-0.854,1.999-1.144,3.792-2.165,4.903c-8.043,8.717-17.275,14.717-29.896,11.773c-7.551-1.758-14.522-4.334-16.327-13.338
		c-0.203-0.992-1.711-2.348-2.721-2.449c-5.322-0.515-10.676-0.682-16.013-0.977c-7.774-0.428-15.583-0.524-23.317-1.368
		c-8.756-0.957-17.436-0.91-26.146,0.127c-0.569,0.066-1.075,0.646-1.655,0.76c-1.834,0.357-3.732,1.025-5.52,0.805
		c-2.143-0.256-4.165-1.83-6.278-1.925c-9.853-0.439-19.593,0.713-29.228,2.747c-5.202,1.101-10.358,2.389-15.069,3.481
		c0.34,6.244,0.552,11.834,0.982,17.417c0.646,8.524,1.787,17.027,2.099,25.557c0.491,13.64,0.889,27.309,0.533,40.94
		c-0.242,8.733-1.816,17.45-2.979,26.148c-0.717,5.414-1.73,10.783-2.752,16.146c-0.225,1.188-0.795,2.453-1.597,3.349
		c-3.113,3.487-9.538,3.232-13.194-1.118c-2.822-3.339-4.646-7.518-7.008-11.271c-2.683-4.258-2.244-9.386-3.832-13.765
		c-1.955-5.377-1.527-10.458-1.385-15.78c0.182-6.369-0.357-12.777,0.218-19.101c0.634-6.979,2.019-13.903,3.356-20.792
		c3.156-16.295,6.465-32.562,9.756-49.031c-0.584-0.137-1.309-0.422-2.039-0.459c-11.807-0.628-23.285-3.907-35.35-3.203
		c-10.623,0.625-21.359-0.694-32.035-1.266c-2.042-0.113-3.248-0.077-3.709,2.464c-2.938,16.214-5.987,32.408-9.134,48.584
		c-2.46,12.622-5.164,25.2-7.674,37.804c-1.786,8.978-3.546,17.953-5.101,26.968c-1.13,6.513-1.758,13.11-2.854,19.625
		c-1.4,8.271-3.156,16.472-4.55,24.738c-0.702,4.118-0.92,8.319-1.396,12.472c-0.298,2.625-0.534,5.259-1.018,7.845
		c-0.915,4.876-2.104,9.715-2.972,14.602c-0.563,3.117-0.755,6.301-1.11,9.453c-0.425,3.666-0.718,7.352-1.313,10.986
		c-1.246,7.656-1.99,15.495-4.211,22.867c-1.898,6.302-5.131,12.261-5.229,18.994C445.823,458.479,446.479,463.266,446.853,468.699z
		 M664.459,633.281c7.273-0.068,14.529,1.635,21.393-2.245c3.252-1.839,7.176-2.651,10.898-3.438c2.57-0.536,5.726-0.757,7.082,2.28
		c1.072,2.428,2.697,2.514,4.82,2.413c9.788-0.469,19.566-0.934,29.369-1.266c6.794-0.233,6.663-0.19,9.117-6.366
		c1.041-2.646,2.766-5.01,4.183-7.502c0.526,0.229,1.051,0.453,1.579,0.683c-0.9,3.827-1.807,7.662-2.853,12.12
		c16.386-0.327,32.119-1.061,47.003-7.559c1.991-6.029-0.021-13.377,5.649-19.549c-0.696,11.9-1.336,22.878-1.989,34.078
		c4.163,0,7.545,0,10.995,0c0-42.968,0-85.631,0-128.435c-1.746-0.319-3.225-0.69-4.729-0.858
		c-13.536-1.495-27.056-3.189-40.62-4.353c-13.096-1.114-26.236-2.057-39.375-2.38c-31.201-0.76-62.409-1.213-93.623-1.537
		c-8.603-0.088-17.209,0.712-25.814,1.097c-9.062,0.413-18.123,0.811-27.189,1.242c-8.426,0.394-16.978,0.077-25.262,1.402
		c-13.42,2.151-26.837,2.698-40.35,2.203c-5.317-0.188-8.75,2.685-8.7,7.793c0.094,9.705,0.349,19.405,0.474,29.109
		c0.196,15.455,0.354,30.904,0.46,46.362c0.033,4.934-0.148,9.868-0.238,14.803c-0.168,8.604-0.535,17.21-0.391,25.811
		c0.044,2.804,0.196,5.047-2.716,6.351c-2.822,1.258-4.481-0.152-6.035-2.328c0.473,1.541,0.943,3.083,1.436,4.715
		c14.349,0.588,23.776-10.679,36.252-14.362c-2.65,5.962-8.756,8.014-13.084,12.502c8.117-0.488,16.053-1.632,23.987-2.773
		c0.355-0.054,0.763-0.257,1.054-0.143c5.217,2.096,10.123,1.162,14.932-1.387c2.626-1.399,5.354-2.598,8.038-3.889
		c0.182,0.238,0.358,0.475,0.543,0.719c-0.836,1.254-1.668,2.501-2.885,4.319c8.039-0.534,15.409-1.229,22.795-1.413
		c2.906-0.067,4.729-1.124,6.461-3.196c3.111-3.729,6.305-7.401,9.684-10.882c0.729-0.762,2.382-0.62,3.605-0.898
		c-0.35,1.11-0.42,2.452-1.102,3.295c-2.76,3.415-5.713,6.693-8.953,10.43c1.207,0.196,1.684,0.358,2.141,0.342
		c17.385-0.551,34.765-1.165,52.148-1.637c2.922-0.078,4.398-1.021,4.83-4.036c0.375-2.631,1.2-5.237,2.096-7.761
		c0.488-1.369,1.533-2.55,2.328-3.812c0.328,0.145,0.648,0.284,0.968,0.426c0,4.472,0,8.952,0,14.275
		c2.43-0.812,4.589-1.533,6.757-2.266c0.121-0.037,0.219-0.222,0.311-0.209c1.406,0.194,3.051,0.045,4.129,0.756
		c0.736,0.48,1.268,2.729,0.822,3.21c-0.766,0.828-2.371,1.278-3.6,1.228C670.018,630.63,666.713,629.96,664.459,633.281z
		 M329.271,201.326c0.111,0.409,0.226,0.822,0.339,1.24c4.615-0.783,9.4-1.069,13.812-2.486c3.974-1.283,7.829-3.701,8.22-8.633
		c0.652-8.248-2.322-15.644-6.1-22.711c-1.43-2.666-3.057-5.51-5.328-7.361c-3.601-2.931-7.792-5.148-11.794-7.588
		c-8.511-5.178-17.885-5.17-27.313-4.117c-3.121,0.352-6.452,1.026-9.136,2.531c-5.564,3.12-10.66,6.964-13.752,12.902
		c-0.938,1.797-2.481,2.362-4.26,0.616c-0.56-0.54-1.548-0.632-2.338-0.928c-6.431-2.422-12.816-4.989-19.321-7.213
		c-4.381-1.498-8.873-2.802-13.422-3.631c-3.93-0.713-8.004-0.548-12.005-0.933c-3.887-0.378-7.937-1.962-11.582-1.258
		c-8.789,1.69-17.824,3.393-25.929,6.986c-8.482,3.756-15.756,9.481-21.418,17.721c-9.104,13.244-16.409,27.297-20.287,42.629
		c-3.863,15.25-5.942,30.999-7.933,46.647c-0.995,7.843-0.125,15.94,0.054,23.921c0.073,3.288,0.541,6.572,0.813,9.852
		c0.848,10.283,3.779,19.756,9.8,28.327c5.666,8.067,14.395,11.042,22.732,14.785c0.347,0.151,0.871-0.118,1.164-0.161
		c-0.813-5.894-8.463-9.888-3.22-17.621c1.374,1.128,2.813,2.474,3.173,4.065c2.245,9.983,8.581,16.699,17.188,21.361
		c7.832,4.232,16.228,5.76,26.117,3.275c-2.561-2.872-4.497-5.325-6.727-7.463c-4.213-4.042-8.525-7.994-12.927-11.825
		c-2.6-2.259-2.493-4.346,0.159-7.32c1.862,1.483,3.662,2.963,5.516,4.373c4.438,3.38,8.549,7.411,13.445,9.908
		c6.239,3.197,13.242,4.151,20.451,2.781c-1.052-1.202-2.247-2.022-3.473-2.795c-2.596-1.634-5.365-3.044-7.721-4.974
		c-0.735-0.599-0.821-2.73-0.372-3.81c0.312-0.724,2.102-1.165,3.202-1.12c1.061,0.045,2.109,0.836,3.126,1.382
		c5.606,3.026,11.085,6.345,16.857,9.029c4.028,1.875,8.446,2.48,13.18,0.046c-1.31-1.538-2.192-3-3.453-3.965
		c-4.056-3.089-8.152-6.143-12.426-8.926c-3.058-1.995-3.716-3.878-0.136-7.053c4.301,2.436,8.911,4.838,13.322,7.579
		c7.659,4.741,15.53,7.142,24.33,3.314c0.731-0.319,1.646-0.225,3.236-0.407c-2.227,4.34-5.861,5.218-9.327,5.975
		c-3.537,0.764-7.189,1-11.189,1.524c2.551,3.402,0.544,5.228-2.332,6.089c-3.972,1.204-8.065,2.213-12.18,2.706
		c-2.633,0.313-5.384-0.448-8.63-0.787c0.642,0.777,0.806,1.183,1.093,1.295c7.609,2.999,10.621,8.629,10.838,16.73
		c0.175,6.584,1.655,12.887,9.277,15.773c4.195,1.59,7.797,4.695,11.786,6.913c0.747,0.415,2.459,0.299,2.983-0.264
		c2.875-3.101,5.521-6.413,8.522-9.979c-5.022-2.417-6.843-5.886-7.703-10.088c-0.474-2.377-1.024-4.778-1.936-7.009
		c-1.656-4.072-1.479-4.878,2.635-5.894c6.125-1.519,12.722-1.439,18.099-5.452c0.276-0.216,0.737-0.207,1.112-0.266
		c8.16-1.345,16.002-3.812,23.065-8.05c4.597-2.758,9.986-5.337,10.413-11.764c-8.4-2.12-17.115-0.076-25.064-4.313
		c-4.898-2.617-6.907-5.654-5.642-11.139c1.668-7.178,6.063-12.506,11.919-16.342c6.813-4.464,14.782-5.998,22.847-6.404
		c4.539-0.23,9.125,0.431,13.671,0.195c3.475-0.181,7.137-1.772,7.06-5.667c-0.105-4.939-1.231-9.94-2.486-14.769
		c-1.331-5.133-5.217-8.562-9.24-11.789c-1-0.801-2.343-2.859-2.058-3.248c0.981-1.321,2.489-2.501,4.04-3.099
		c2.116-0.812,4.59-0.729,6.626-1.646c0.979-0.433,2.075-2.487,1.828-3.473c-1.856-7.183-6.337-9.2-12.977-6.135
		c-0.353,0.156-0.68,0.371-1.024,0.517c-6.501,2.687-13.072,1.563-18.106-2.403c-8.24-6.489-12.099-16.001-14.042-26.168
		c-0.987-5.178-1.275-5.687-6.645-5.213c-8.491,0.739-16.969,1.59-25.422,2.628c-0.885,0.102-2.094,1.658-2.29,2.706
		c-1.482,7.893-2.701,15.846-4.091,23.769c-3.084,17.544-5.102,35.144-2.909,52.987c1.387,11.276,3.288,22.324,11.949,30.779
		c0.568,0.557,0.771,1.481,1.728,3.428c-2.664-0.509-4.563-0.442-6.008-1.227c-4.945-2.686-7.936-7.175-9.803-12.333
		c-4.117-11.389-5.274-23.359-4.09-35.2c2.089-20.839,5.222-41.57,7.979-62.342c0.328-2.485,0.754-4.608-2.146-6.133
		c-2.166-1.133-1.537-4.042,0.237-4.011c3.297,0.047,3.977-2.544,6.423-4.7c0.477,1.667,0.729,2.839,1.153,3.931
		c0.467,1.193,0.96,3.204,1.686,3.319c2.483,0.395,5.132,0.415,7.599-0.051c1.128-0.219,1.88-2.038,2.985-2.893
		c1.181-0.917,2.506-1.772,3.899-2.279c2.751-0.985,5.595-1.71,8.341-2.525c0.312-7.828,4.515,0.217,6.275-1.865
		c0.9-8.2-2.814-14.437-10.395-17.282c-1.075-0.398-2.218-0.755-3.121-1.421c-0.723-0.534-1.124-1.507-1.664-2.279
		c0.904-0.479,1.883-1.467,2.708-1.351c3.883,0.553,7.897,0.975,11.534,2.317c2.173,0.801,4.62,2.903,5.396,4.995
		c1.387,3.729,1.651,7.889,2.329,11.884c1.219,7.29,1.262,9.564,9.384,5.579c0.569-0.28,1.102-0.643,1.653-0.962
		c6.334-3.681,6.287-3.672,4.884-10.845c-0.39-1.996-0.639-4.062-0.591-6.089c0.029-1.356,0.702-2.693,1.088-4.033
		c0.395,0.042,0.795,0.102,1.189,0.154c0.948,2.98,1.705,6.042,2.874,8.935c2.803,6.945,2.426,8.701-3.465,13.39
		C330.911,200.241,330.074,200.766,329.271,201.326z M582.248,196.945c7.325-1.395,14.588-2.703,21.813-4.161
		c7.378-1.481,14.687-3.303,22.103-4.55c2.44-0.41,3.371-0.812,3.697-3.489c1.854-15.458,4.353-30.852,5.833-46.342
		c0.556-5.781,4.364-11.79-2.3-17.869c-4.615-4.21-5.732-11.896-5.065-18.672c1.045-10.532,2.754-21,3.862-31.531
		c1.664-15.807-1.707-29.872-14.661-40.495c-9.427-7.725-20.071-7.236-30.881-4.615c-8.298,2.004-15.232,6.733-22.04,11.815
		c-5.746,4.306-10.567,9.276-13.878,15.53c-5.677,10.717-5.771,22.146-2.624,33.505c2.219,7.998,2.546,15.975,2.369,24.16
		c-0.057,3.059-0.945,6.369,1.711,9.396c4.667,5.343,8.839,11.124,13.03,16.859c0.514,0.709-0.144,2.27-0.256,3.438
		c-1.025-0.158-2.161-0.099-3.055-0.532c-0.86-0.432-1.585-1.29-2.195-2.092c-3.091-4.051-6.042-8.205-9.203-12.208
		c-1.283-1.618-2.964-2.93-4.01-3.935c-4.681,4.66-8.866,8.917-13.152,13.065c-4.245,4.111-9.253,7.669-9.699,14.854
		c3.347,0.963,6.794,1.83,10.132,3.02c1.205,0.425,2.129,1.638,3.18,2.485c-1.264,0.294-2.646,1.066-3.777,0.793
		c-4.291-1.042-8.5-2.417-13.486-3.887c-0.632,3.438-2.037,6.957-1.736,10.317c0.488,5.379,1.41,10.938,3.459,15.873
		c1.842,4.428,4.904,8.528,10.27,10.086c3.594,1.035,6.904,2.991,10.379,4.458c2.338,0.987,4.686,2.456,7.115,2.647
		c6.604,0.512,13.256,0.452,19.884,0.647c3.241,0.092,3.979,1.322,2.956,4.413c-1.102,3.285-2.053,6.623-3.067,9.944
		c2.721-4.005,4.54-8.362,6.901-12.396C578.568,192.846,579.23,192.942,582.248,196.945z M790.482,135.748
		c-0.312-0.364-0.623-0.727-0.932-1.095c1.962-1.604,3.715-3.659,5.947-4.679c2.324-1.061,5.101-1.127,7.808-1.655
		c-0.188-3.167-0.132-6.268-0.684-9.253c-0.186-1.021-1.813-2.343-2.927-2.512c-4.94-0.731-8.464,2.013-11.712,5.31
		c-0.878,0.899-2.072,1.491-3.123,2.226c-0.391-0.419-0.791-0.84-1.182-1.259c1.63-2.153,3.097-4.467,4.943-6.417
		c3.209-3.387,7.094-5.366,12.299-3.631c-1.21-3.565-2.327-6.263-3.038-9.074c-1.374-5.482-8.608-8.065-12.854-4.26
		c-6.993,6.266-11.073,14.164-10.922,23.61c0.226,14.733,4.541,28.317,12.641,40.696c0.865,1.332,0.798,3.278,1.169,4.939
		c-2.125,0.008-4.37,0.447-6.346-0.083c-2.872-0.771-5.479-2.611-8.362-3.322c-3.949-0.965-8.049-1.271-12.088-1.912
		c-5.496-0.873-10.986-1.783-16.409-2.672c-0.258-5.042,3.794-3.132,5.875-4.447c-1.807-6.816-3.595-13.567-5.364-20.325
		c-1.061-4.038-1.865-8.157-3.188-12.11c-1.615-4.825-3.235-9.745-5.634-14.207c-2.42-4.51-5.299-9.016-8.921-12.566
		c-3.174-3.126-7.528-5.156-11.572-7.275c-6.994-3.67-14.604-6.049-22.423-4.506c-14.526,2.863-24.811,11.711-31.7,24.689
		c-3.159,5.958-7.161,11.153-13.927,13.328c-2.754,0.89-3.227,2.99-3.404,5.38c-0.481,6.354-0.908,12.708-1.434,19.067
		c-1.031,12.582-2.083,25.168-3.225,37.736c-0.205,2.337,0.611,3.246,2.896,3.362c3.827,0.193,7.646,0.593,11.469,0.856
		c12.988,0.898,25.976,1.769,38.961,2.668c5.844,0.406,11.709,0.685,17.521,1.327c3.009,0.333,4.544,1.818,2.997,5.328
		c-1.5,3.391,2.365,8.406,6.031,8.702c1.001-2.809,1.854-5.597,3.023-8.24c0.334-0.75,1.578-1.101,2.406-1.631
		c0.147,1.016,0.585,2.097,0.38,3.052c-0.574,2.812-1.409,5.581-2.25,8.756c2.182,0.386,3.787,0.682,5.389,0.936
		c5.496,0.879,5.921,0.275,5.183-5.246c-0.482-3.674-1.568-7.622,2.49-11.742c1.01,4.908,1.873,9.081,2.733,13.242
		c9.87-2.531,13.468-12.159,7.516-19.631c-1.582-1.982-2.359-4.603-3.97-6.554c-4.315-5.242-9.602-9.352-16.306-10.976
		c-10.942-2.656-22.087,0.158-33.13-0.842c-5.953-0.542-11.994,0.048-17.993-0.167c-1.104-0.045-2.153-1.526-3.228-2.341
		c1.195-0.711,2.372-2.008,3.578-2.042c9.068-0.212,18.137-0.189,27.212-0.212c3.194-0.008,6.421,0.36,9.578,0.023
		c10.03-1.074,19.139,0.189,28.127,5.796c7.923,4.941,10.912,12.552,14.312,20.046c1.156,2.546,1.908,3.498,4.504,3.761
		c12.073,1.222,24.135,2.582,36.19,3.99c4.735,0.551,9.443,1.356,15.053,2.179c-1.764-22.946,0.394-45.376-6.692-67.394
		C799.042,133.638,794.762,134.692,790.482,135.748z M883.357,474.466c-7.964,0-15.507-0.085-23.049,0.008
		c-23.487,0.276-46.968,0.884-70.444,0.843c-15.798-0.029-31.58-0.949-47.378-1.478c-8.517-0.291-17.027-0.747-25.545-0.843
		c-14.774-0.163-29.533-0.041-44.299-0.142c-8.274-0.061-16.553-0.332-24.828-0.474c-8.785-0.147-17.577-0.218-26.361-0.41
		c-3.297-0.073-6.593-0.58-9.895-0.577c-6.203,0.016-12.412,0.294-18.615,0.395c-9.03,0.125-18.076,0.079-27.105,0.322
		c-12.869,0.346-25.727,1.015-38.599,1.308c-14.114,0.327-28.232,0.375-42.355,0.547c-3.305,0.036-6.612,0.12-9.922,0.129
		c-9.284,0.023-18.567,0.008-28.264,0.008c2.202,5.369,3.402,11.674,7.804,16.532c0.775,0.857,2.181,1.528,3.337,1.597
		c7.108,0.431,14.236,0.676,21.35,0.951c1.918,0.069,3.837,0,5.752,0.031c11.87,0.212,23.746,0.802,35.6,0.566
		c15.977-0.312,31.932-1.513,47.901-1.847c12.636-0.262,25.292,0.376,37.929,0.29c14.45-0.096,28.896-0.541,43.342-0.875
		c2.938-0.066,5.864-0.458,8.801-0.509c8.293-0.125,16.604,0.045,24.893-0.267c23.871-0.901,47.721-2.258,71.635-0.056
		c17.415,1.605,34.909,2.297,52.377,3.223c2.696,0.149,5.447-0.975,8.164-0.924c4.956,0.091,9.907,0.914,14.86,0.909
		c13.66-0.008,27.338-0.302,41.003-0.454c3.024-0.032,5.718-0.754,6.855-3.837C880.02,484.794,881.478,480.067,883.357,474.466z
		 M144.438,414.198c-2.654,0.908-4.354,1.341-5.929,2.06c-2.641,1.193-5.319,2.373-7.75,3.906c-2.06,1.304-2.58,3.133-1.087,5.546
		c3.167,5.126,5.39,5.638,10.35,1.957c1.737-1.294,3.502-2.548,5.247-3.827c0.422,0.331,0.832,0.66,1.252,0.984
		c-0.889,1.82-1.413,3.986-2.738,5.389c-2.912,3.082-6.344,5.665-6.06,10.604c0.047,0.854-0.797,1.873-1.445,2.635
		c-2.135,2.476-1.03,4.262,1.492,4.787c2.234,0.465,4.834,0.338,6.989-0.378c2.567-0.849,2.427-3.308,0.195-4.859
		c-0.83-0.575-1.916-2.337-1.762-2.506c0.959-1.04,2.239-2.481,3.43-2.491c8.873-0.108,17.758-0.006,26.635,0.215
		c7.598,0.184,15.249-1.708,22.842,0.91c1.359,0.468,4.361-1.037,5.253-2.469c6.19-9.889,5.738-20.377,1.588-30.832
		c-0.448-1.119-3.02-2.089-4.52-1.967c-4.797,0.385-9.549,1.861-14.332,1.928c-9.696,0.132-19.406-0.318-29.104-0.652
		c-11.316-0.381-22.713,0.22-33.759-3.18c-4.305-1.322-8.024,0.357-11.311,3.058c-1.836,1.503-3.792,3.519-2.008,5.782
		c0.834,1.068,3.441,0.844,5.265,0.994c0.843,0.059,1.759-0.666,2.589-0.57c4.72,0.523,9.419,1.188,14.123,1.809
		c1.337,0.18,2.777,0.779,3.983,0.475C137.058,412.693,140.145,411.532,144.438,414.198z M221.146,553.899
		c-0.178,0.311-0.361,0.624-0.538,0.929c-7.065-1.334-10.37-7.753-15.152-12.135c-4.44,2.662-6.175,8.072-10.481,10.585
		c-0.523-0.453-1.053-0.908-1.577-1.364c3.182-4.425,6.361-8.847,9.559-13.283c-2.683-4.196-2.868-4.952-7.595-4.148
		c-6.703,1.134-13.215,3.45-19.8,5.279c-0.153,0.046-0.228,0.4-0.54,0.993c3.59,3.794,7.266,7.688,10.948,11.575
		c-7.556,0.392-9.556-7.017-15.229-10.312c-2.202,3.234-4.361,6.419-7.049,10.383c2.686,0.318,4.397,0.603,6.128,0.717
		c13.51,0.878,27.013,1.744,40.527,2.579c6.999,0.428,14.002,0.833,21.007,1.072c1.091,0.039,2.502-0.622,3.272-1.424
		c2.286-2.405,4.446-4.957,6.394-7.64c0.536-0.736,0.624-2.442,0.129-3.182c-4.431-6.625-8.959-13.226-18.64-11.368
		c-1.075,0.207-2.279-0.266-3.417-0.404c-4.987-0.598-8.135,2.538-9.869,6.282c-0.684,1.45,1.467,4.778,3.061,6.604
		C214.923,548.662,218.16,551.176,221.146,553.899z M333.515,589.406c-0.462-3.928-0.783-6.955-1.187-9.97
		c-0.414-3.018-0.958-6.031-1.338-9.055c-0.669-5.308-2.322-6.143-7.591-5.32c-7.448,1.177-15.014,1.652-22.506,2.6
		c-1.062,0.14-2.852,1.233-2.868,1.924c-0.215,7.336-0.133,14.679-0.133,22.617C309.826,591.268,321.436,590.356,333.515,589.406z
		 M264.521,611.879c-0.168,0.367-0.332,0.737-0.497,1.101c4.712,1.504,9.417,3.011,14.128,4.494c0.476,0.154,1.278,0.065,1.43,0.354
		c1.688,3.219,4.662,2.014,7.016,1.773c9.168-0.936,18.298-1.778,27.467-0.121c0.92,0.169,2.048-0.129,2.926-0.541
		c6.721-3.111,13.406-6.306,19.842-9.355c-3.449-1.339-7.165-3.164-12.004-2.787c-6.02,0.465-12.179-0.501-18.239-1.157
		c-1.117-0.117-2.075-1.688-3.11-2.592c1.298-0.502,2.592-1.448,3.888-1.448c7.795,0.018,15.589,0.288,23.386,0.388
		c1.455,0.018,2.921-0.37,4.651-0.612c-0.519-3.032-0.968-5.598-1.389-8.034c-9.731,0.921-18.956,1.883-28.198,2.635
		c-8.333,0.679-9.226,2.035-5.892,9.738c0.1,0.231,0.312,0.425,0.379,0.663c0.687,2.293,1.465,4.571,2.013,6.902
		c0.53,2.274-0.548,3.981-2.807,4.009c-0.815,0.022-2.286-1.832-2.373-2.924c-0.281-3.429-2.528-3.94-5.081-3.836
		C282.872,610.899,273.695,611.414,264.521,611.879z M259.777,568.954c-0.517,6.966-1.043,14.264-1.634,22.275
		c11.894-3.442,22.947,0.38,34.741,1.686c0-8.429,0-16.114,0-23.961C282.007,568.954,271.128,568.954,259.777,568.954z
		 M338.407,485.955c-6.18-7.244-11.777-13.803-17.592-20.639c-6.648,6.43-12.851,12.421-19.105,18.467
		c6.17,7.439,11.672,14.057,17.538,21.111C325.703,498.514,331.872,492.41,338.407,485.955z M319.309,463.391
		c-6.209-6.814-11.864-13.023-17.816-19.557c-6.344,6.566-12.401,12.835-18.742,19.398c5.603,6.245,11.364,12.662,16.511,18.39
		C306.048,475.446,312.47,469.604,319.309,463.391z M263.496,522.326c5.964-6.367,11.43-12.195,17.007-18.151
		c-6.14-6.91-12.113-13.646-18.455-20.786c-5.453,5.995-10.627,11.691-15.945,17.54
		C251.969,508.147,257.504,514.953,263.496,522.326z M331.475,523.094c5.85-1.589,12.646-0.263,16.035-7.193
		c1.38-2.811,5.234-5.061,5.328-7.667c0.109-2.737-2.828-5.67-4.635-8.384c-2.632-3.969-5.446-7.818-7.54-10.813
		c-6.885,6.064-13.393,11.793-19.812,17.435C324.641,512.401,327.999,517.644,331.475,523.094z M298.389,484.435
		c-6.065-6.646-11.949-13.094-16.975-18.595c-6.099,5.188-11.792,10.034-17.721,15.081c6.582,7.573,12.475,14.352,18.561,21.356
		C287.752,496.194,292.949,490.448,298.389,484.435z M299.797,523.188c3.905-3.719,8.045-7.484,11.998-11.449
		c4.811-4.827,4.849-4.98,0.729-10.352c-3.843-4.999-7.955-9.8-12.256-15.063c-5.646,6.227-10.813,11.921-15.771,17.379
		C289.853,510.526,294.873,516.915,299.797,523.188z M237.996,556.886c1.346,0.228,2.187,0.464,3.026,0.501
		c9.562,0.456,19.12,0.906,28.682,1.269c0.923,0.041,2.084-0.228,2.78-0.79c5.481-4.454,6.069-8.29,2.179-14.232
		c-1.11-1.698-2.423-3.301-3.855-4.733c-0.721-0.727-1.881-1.296-2.9-1.386c-3.785-0.341-7.587-0.551-11.389-0.59
		c-1.121-0.009-2.546,0.391-3.314,1.135c-1.912,1.855-3.432,4.112-5.293,6.019c-1.647,1.687-1.325,2.963,0.136,4.531
		c2.148,2.283,4.124,4.726,6.387,7.348c-0.842,0.346-1.507,0.803-1.671,0.666c-2.836-2.424-5.614-4.921-8.757-7.709
		C242.061,551.499,240.183,553.985,237.996,556.886z M264.186,443.479c5.332,5.722,10.434,11.195,15.604,16.738
		c6.65-6.263,13.032-12.271,19.446-18.315c-1.584-1.739-3.05-3.339-4.494-4.949c-3.773-4.221-7.494-8.434-14.114-5.446
		c-1.519,0.679-3.67,0.351-4.845,1.313C271.865,436.062,268.26,439.683,264.186,443.479z M320.699,461.373
		c4.095-3.496,7.603-6.893,11.528-9.705c2.877-2.059,3.152-4.479,1.466-6.795c-4.177-5.75-8.751-11.205-13.343-16.994
		c-6.057,5.159-11.447,9.762-16.992,14.494C309.303,448.876,314.876,454.994,320.699,461.373z M277.992,557.526
		c0.209,0.539,0.424,1.07,0.635,1.61c9.824-1.175,19.635-2.509,29.485-3.44c3.646-0.352,6.178-1.701,7.928-4.867
		c-3.875-4.679-7.659-9.312-11.516-13.884c-3.95-4.679-7.725-4.566-11.642,0.258c-2.012,2.471-3.877,5.069-6.022,7.416
		c-3.161,3.447-5.135,6.853-1.031,10.935c0.074,0.068-0.161,0.434-0.522,1.348c-1.702-0.891-3.351-1.745-5.253-2.736
		C279.372,555.269,278.679,556.393,277.992,557.526z M244.857,462.977c-5.191,6.153-9.902,11.651-14.45,17.283
		c-0.486,0.601-0.458,2.33,0.052,2.917c4.337,5.004,8.835,9.858,13.535,15.033c5.312-5.8,10.532-11.502,15.878-17.339
		C254.935,474.993,250.204,469.355,244.857,462.977z M246.519,460.858c5.338,6.286,10.235,12.051,14.243,16.764
		c5.936-5.401,11.543-10.507,17.261-15.703c-5.293-5.604-10.355-10.956-15.704-16.626
		C256.917,450.619,251.852,455.606,246.519,460.858z M300.942,440.707c6.102-5.234,11.586-9.947,17.285-14.835
		c-5.995-5.668-11.698-11.046-17.624-16.644c-5.375,5.055-10.336,9.713-16.006,15.031c2.723,1.285,4.681,2.195,6.485,3.039
		C291.768,433.494,298.015,435.402,300.942,440.707z M244.226,503.187c-4.831,5.98-9.37,11.44-13.672,17.075
		c-0.826,1.076-1.317,3.06-0.919,4.282c0.596,1.825,1.847,3.215,4.485,3.303c4.681,0.158,9.468,0.585,13.962,1.811
		c6.25,1.706,10.172-0.587,13.261-6.058C255.802,516.985,250.195,510.301,244.226,503.187z M239.569,610.561
		c-12.755-0.711-26.63-0.922-39.404,7.182c13.095,5.966,46.001,7.626,58.054,3.29c-4.558-1.978-9.506-3.972-14.293-6.285
		C242.505,614.065,241.514,612.484,239.569,610.561z M242.012,424.898c-4.516-3.99-8.91-8.02-13.517-11.777
		c-0.666-0.543-2.619-0.158-3.571,0.436c-3.24,2.006-6.336,4.268-9.425,6.52c-1.888,1.366-3.648,2.915-5.509,4.41
		c6.195,5.841,11.92,11.239,17.865,16.846C232.556,435.871,237.105,430.59,242.012,424.898z M243.614,457.949
		c5.625-5.021,11.038-9.844,15.995-14.265c-5.118-5.49-9.936-10.67-14.998-16.108c-5.122,5.601-9.832,10.74-14.706,16.05
		C234.677,448.609,239.512,453.667,243.614,457.949z M393.101,617.86c-4.621-4.896-42.101-10.274-49.789-6.594
		c4.724,0.353,8.405,0.615,12.473,0.914c-1.441,3.784-5.033,3.659-7.792,4.462c-2.908,0.846-6.041,0.924-9.058,1.396
		c-2.958,0.461-5.903,0.989-8.854,1.49C352.199,622.479,382.905,624.383,393.101,617.86z M263.125,440.914
		c2.946-3.281,6.366-7.097,9.767-10.893c-5.848-4.03-5.788-7.164,0.66-13.387c-3.009-2.503-5.988-4.983-9.071-7.55
		c-6.044,5.56-11.829,10.897-18.382,16.929C251.813,431.008,257.078,435.622,263.125,440.914z M366.828,519.737
		c4.17,0,7.882,0,13.076,0c-3.75-6.212-6.932-11.599-10.249-16.916c-1.643-2.636-3.872-4.958-5.213-7.721
		c-4.657-9.621-8.988-19.394-13.598-29.034c-0.515-1.08-2-1.701-3.543-2.947c5.144,18.65,9.977,36.194,15.117,54.849
		c1.373-2.381,2.202-3.855,3.074-5.312c0.922-1.544,1.875-3.07,2.813-4.602c0.559,0.218,1.124,0.432,1.681,0.646
		C368.973,512.256,367.957,515.799,366.828,519.737z M298.238,526.243c-5.237-6.948-10.182-13.5-15.561-20.627
		c-6.203,6.842-11.683,12.894-17.562,19.368c2.582,2.189,4.657,5.442,6.684,5.412c7.727-0.127,15.444-1.271,23.146-2.17
		C295.889,528.113,296.74,527.175,298.238,526.243z M293.986,606.035c-0.262-2.221-0.44-4.774-0.926-7.258
		c-0.149-0.781-1.087-1.943-1.76-2.012c-9.117-0.973-18.238-2.243-27.378-2.472c-6.864-0.171-8.694,2.736-7.365,9.505
		c0.176,0.864,1.516,2.127,2.329,2.137C270.478,606.085,282.075,606.035,293.986,606.035z M227.71,484.335
		c-0.369,0.162-0.744,0.33-1.113,0.489c-1.258,7.905-2.298,15.851-3.858,23.695c-0.882,4.459-0.389,8.143,3.076,11.405
		c5.423-6.576,10.746-13.03,16.351-19.835C237.245,494.729,232.48,489.529,227.71,484.335z M567.99,324.689
		c1.582,0.83,3.076,2.17,3.795,1.838c0.99-0.452,1.565-2.117,2.004-3.375c3.713-10.559,4.83-21.622,5.822-32.646
		c0.719-7.993,0.915-16.079,0.678-24.101c-0.37-12.499-1.276-24.99-2.023-37.474c-0.189-3.074-0.68-6.12-1.027-9.18
		c-0.407,0.022-0.807,0.058-1.212,0.084c0,3.348,0,6.695,0,10.045c0,8.156,0.028,16.304-0.008,24.454
		c-0.04,10.485,0.085,20.974-0.271,31.449c-0.299,8.832-1.516,17.638-1.676,26.468C573.986,317.217,572.387,320.961,567.99,324.689z
		 M339.514,483.457c4.979-3.743,7.191-7.679,3.909-13.229c-0.88-1.48-0.89-3.454-1.52-5.111c-1.646-4.344-3.426-8.645-5.365-13.512
		c-5.031,4.257-9.38,7.927-13.954,11.795C328.348,470.229,333.905,476.813,339.514,483.457z M245.265,398.019
		c-5.262,4.124-10.31,8.082-15.652,12.265c4.966,4.591,9.53,8.805,14.214,13.141c6.084-5.543,11.979-10.91,17.873-16.288
		C252.926,409.525,252.273,409.193,245.265,398.019z M352.286,547.244c5.459-6.725,10.83-13.345,16.257-20.017
		c-3.735-3.05-6.83-4.196-10.591-2.266c-1.202,0.607-2.7,0.696-4.081,0.883c-3.159,0.398-6.371,0.492-9.478,1.129
		c-4.33,0.879-4.542,1.646-2.155,5.213C345.423,536.952,348.6,541.717,352.286,547.244z M320.886,550.92
		c0.049,0.478,0.097,0.956,0.142,1.433c1.68,0.294,3.446,1.063,5.023,0.787c6.488-1.119,12.919-2.577,19.388-3.873
		c1.158-0.232,2.356-0.286,4.458-0.529c-4.354-5.786-8.183-10.864-12.387-16.439C331.683,538.835,326.28,544.882,320.886,550.92z
		 M318.333,548.747c6.075-6.475,11.778-12.547,17.478-18.608c-0.189-0.499-0.378-1-0.566-1.496
		c-9.586,1.376-19.172,2.751-29.384,4.215C310.193,538.369,314.098,543.346,318.333,548.747z M398.931,529.042
		c-8.452-5.406-16.894-4.951-26.04-3.604c4.572,6.511,8.741,12.461,13.457,19.187C390.442,539.562,394.611,534.396,398.931,529.042z
		 M547.021,644.924c1.52,0,2.136,0.066,2.735-0.002c10.021-1.185,20.01-2.738,30.065-3.442c5.613-0.407,8.35-3.937,12.42-8.311
		c-8.288,0.595-15.469,1.035-22.638,1.651c-2.624,0.237-5.489,0.342-7.769,1.468C557.047,638.642,552.569,641.637,547.021,644.924z
		 M328.365,523.628c-3.475-5.128-6.484-9.583-9.779-14.438c-5.567,6.027-10.598,11.489-15.627,16.942
		c0.212,0.44,0.425,0.868,0.642,1.306C311.639,526.199,319.678,524.962,328.365,523.628z M227.443,478.473
		c5.26-6.141,10.114-11.814,15.348-17.936c-4.047-4.258-8.108-8.549-12.597-13.273C229.214,458.357,228.354,468.187,227.443,478.473
		z M324.254,420.562c-0.314-0.711-0.483-1.18-0.713-1.62c-2.257-4.242-4.566-8.452-6.766-12.722
		c-2.814-5.456-4.695-5.905-9.538-2.053c-1.376,1.101-2.676,2.283-3.831,3.271c5.54,5.646,10.978,11.172,16.511,16.816
		C321.359,423.024,322.791,421.807,324.254,420.562z M371.074,529.167c-4.129,5.692-7.595,10.466-11.042,15.215
		c7.307,0,14.292,0,21.275,0c0.124-0.365,0.25-0.739,0.374-1.111C378.279,538.747,374.878,534.226,371.074,529.167z
		 M284.759,392.932c1.177,0.656,2.519,1.764,4.036,2.137c2.693,0.664,5.505,0.809,8.251,1.289c1.651,0.289,3.273,0.805,4.997,1.238
		c0.567-7.252-3.857-14.523-10.3-17.412C289.494,384.289,287.224,388.426,284.759,392.932z M744.23,633.407
		c-11.938-0.237-23.686-0.712-33.994,7.74c11.651-0.744,22.794-1.463,33.994-2.185C744.23,636.916,744.23,635.397,744.23,633.407z
		 M224.977,409.444c-6.094-3.149-9.073-10.169-16.747-9.098c0.978,6.593,1.891,12.758,2.839,19.182
		C215.487,416.324,219.894,413.13,224.977,409.444z M562.405,314.627c0.499-0.062,0.992-0.13,1.481-0.195
		c-4.051-22.911-4.033-45.929-1.699-68.976c-1.484,7.809-2.885,15.571-4.135,23.363c-0.383,2.381-0.935,4.98-0.385,7.226
		c2.375,9.641-2.694,19.959,2.732,29.272c0.059,0.106,0.029,0.258,0.059,0.379C561.105,308.673,561.755,311.654,562.405,314.627z
		 M270.495,392.538c-3.761-1.635-7.212-3.212-10.741-4.626c-1.687-0.677-8.787,4.284-8.728,6.029
		c0.018,0.541,0.424,1.214,0.857,1.57c2.719,2.226,5.498,4.373,8.332,6.609C263.667,398.906,266.886,395.9,270.495,392.538z
		 M698.812,635.671c-10.79-1.638-19.627,1.072-27.827,8.82c6.191-0.562,11.558-1.427,16.934-1.436
		C693.408,643.038,695.751,639.414,698.812,635.671z M133.431,440.867c1.238-3.195,1.528-4.949-1.922-5.717
		c-1.853-0.411-3.699-1.771-5.065-3.178c-1.771-1.807-4.057-4.188-5.923-2.467c-1.652,1.508-2.362,5.125-1.948,7.551
		c0.637,3.695,4.042,5.177,7.624,5.944c3.629,0.782,3.62-2.232,4.72-4.174c0.206-0.367,0.765-0.547,1.227-0.851
		C132.521,438.827,132.821,439.494,133.431,440.867z M612.422,9.381c-2.314-1.906-3.71-3.779-5.54-4.438
		c-5.843-2.105-11.521-0.843-16.121,3.02c-1.388,1.165-1.188,4.508-1.221,6.857c-0.017,0.777,1.532,2.244,2.354,2.237
		c3.156-0.044,6.312-0.563,10.684-1.029c-1.295-0.744-2.197-0.967-2.586-1.546c-0.846-1.26-2.344-3.206-1.937-3.957
		c0.854-1.52,2.796-3.407,4.282-3.392C605.291,7.157,608.229,8.361,612.422,9.381z M796.493,628.697
		c-8.842-0.347-15.645,3.075-22.128,8.702c7.422,0,14.284,0,21.438,0C796.043,634.427,796.261,631.708,796.493,628.697z
		 M452.749,623.718c2.143,2.643,3.484,5.854,5.125,6.021c4.427,0.45,8.98-0.409,13.605-0.759c0.311-3.062,0.561-5.646,0.843-8.457
		C465.993,621.563,460.138,622.513,452.749,623.718z M750.39,637.984c9.141,1.683,19.779-1.034,25.718-6.671
		c-7.516,0.529-14.85,1.119-22.191,1.547C749.602,633.118,749.405,633.281,750.39,637.984z M394.375,543.394
		c5.271-1.724,10.285-3.366,15.534-5.08c-2.915-4.16-4.851-8.402-8.97-8.777C398.804,534.038,396.814,538.245,394.375,543.394z
		 M346.117,459.388c3.512-3.999,5.602,0.411,8.887,1.249c-3.286-5.615-6.209-10.619-9.12-15.592
		c-5.569,2.939-5.569,2.939-3.181,7.643C343.741,454.718,344.778,456.753,346.117,459.388z M280.818,547.075
		c3.231-3.917,6.236-7.579,9.736-11.834c-5.876,0.684-10.898,1.269-16.23,1.888C276.515,540.481,278.552,543.604,280.818,547.075z
		 M617.369,637.274c6.881-1.188,14.417,1.039,19.983-4.609c-7.198,0-14.41,0-22.118,0
		C616.164,634.678,616.733,635.9,617.369,637.274z M247.376,391.87c1.726-1.266,2.972-2.121,4.158-3.053
		c1.086-0.86,2.101-1.81,3.204-2.757c-1.218-0.342-2.322-0.654-3.56-0.996c0.468-1.465,1.113-2.548,1.075-3.615
		c-0.032-0.911-0.644-2.324-1.351-2.595c-4.376-1.677-6.764,0.199-5.987,4.81C245.375,386.337,246.46,388.9,247.376,391.87z
		 M294.418,404.625c-0.028,0.399-0.06,0.799-0.083,1.197c-4.922,0-9.838,0-14.753,0c-0.028,0.423-0.057,0.846-0.09,1.26
		c2.413,1.086,4.843,2.111,7.224,3.25c5.939,2.833,7.001,2.539,11.064-3.281C296.659,406.242,295.538,405.432,294.418,404.625z
		 M209.679,428.314c-1.626,3.609-3.062,6.781-4.467,9.904c5.06,0,9.933,0,15.743,0C216.825,434.59,213.343,431.526,209.679,428.314z
		 M341.695,485.769c3.271,4.771,6.421,9.348,9.557,13.919c0.187-0.113,0.371-0.229,0.562-0.349
		c-1.706-6.344-3.415-12.685-5.31-19.729C344.645,481.991,343.205,483.83,341.695,485.769z M219.879,402
		c2.5,2.152,4.675,4.025,7.056,6.075c3.73-2.854,7.268-5.559,11.497-8.81C231.821,400.246,226.188,401.074,219.879,402z
		 M251.17,536.145c-5.082-0.751-9.345-1.379-14.646-2.156c3.005,3.885,5.236,6.771,7.767,10.049
		C246.585,541.407,248.562,539.137,251.17,536.145z M639.396,634.053c0.164,0.442,0.324,0.881,0.487,1.313
		c5.4-0.255,10.805-0.407,16.18-0.871c0.857-0.076,1.586-1.552,3.019-3.042c-5.778,0-10.209-0.243-14.595,0.116
		C642.731,631.72,641.089,633.189,639.396,634.053z M894.609,631.626c-6.465,1.877-12.928,3.75-20.281,5.884
		C882.308,638.042,889.696,639.988,894.609,631.626z M194.689,623.472c-0.599,1.215-1.187,2.415-2.132,4.324
		c6.409,1.688,12.525,1.989,18.701,1.652C205.923,627.521,200.595,625.605,194.689,623.472z M334.523,429.111
		c-0.228,0.143-0.45,0.287-0.678,0.438c1.747,5.061,3.493,10.126,5.394,15.642c1.669-1.155,2.841-1.976,4.108-2.853
		C340.248,437.692,337.387,433.404,334.523,429.111z M292.814,399.35c2.8,2.412,5.01,4.32,7.228,6.244
		c3.28-2.338,6.276-4.459,9.27-6.608c0.178-0.127,0.246-0.426,0.514-0.907c-0.92-0.672-1.861-1.361-2.869-2.109
		C304.676,401.55,304.676,401.55,292.814,399.35z M611.607,638.012c-2.398-5.086-8.728-4.528-14.661,1.146
		C602.009,638.763,606.607,638.401,611.607,638.012z M357.447,518.657c-0.597-2.712-1.101-4.975-1.816-8.217
		c-2.768,3.809-4.859,6.695-6.955,9.585c0.219,0.312,0.434,0.616,0.645,0.925C351.914,520.222,354.502,519.492,357.447,518.657z
		 M278.142,398.096c-3.365,2.651-6.708,5.208-9.929,7.901c-0.423,0.359-0.259,1.425-0.359,2.161
		c0.626-0.227,1.758-0.375,1.812-0.696c0.456-2.933,2.99-2.808,4.921-3.409c2.345-0.747,4.774-1.232,7.718-1.961
		C280.617,400.474,279.545,399.448,278.142,398.096z M322.136,426.389c2.669,3.232,5.124,6.188,7.575,9.148
		c0.312-0.182,0.62-0.36,0.938-0.54c-1.501-3.753-3.004-7.508-4.735-11.833C324.359,424.492,323.364,425.342,322.136,426.389z
		 M700.626,640.381c4.812-1.891,8.998-3.542,13.192-5.187C709.125,635.723,703.066,632.671,700.626,640.381z M263.109,403.939
		c0.336,0.392,0.673,0.799,1.008,1.197c3.615-2.855,7.226-5.719,10.842-8.572c-0.28-0.367-0.568-0.726-0.847-1.086
		C268.977,396.35,266.806,401.146,263.109,403.939z M273.494,421.727c3.327,3.666,4.676,3.882,6.858,1.109
		C278.333,421.268,276.751,418.065,273.494,421.727z M672.916,637.373c-0.043-0.286-0.101-0.569-0.146-0.85
		c-2.126,0.17-4.285,0.204-6.369,0.606c-0.716,0.135-1.236,1.223-1.848,1.876c0.884,0.426,1.949,1.385,2.61,1.162
		C669.164,639.484,671.003,638.336,672.916,637.373z M287.384,416.696c-3.251,0.575-5.442,0.964-7.882,1.397
		c1.236,1.398,2.107,2.369,3.134,3.519C284.03,420.158,285.298,418.853,287.384,416.696z M123.165,415.226
		c-0.905,2.032-1.727,3.042-1.677,4.005c0.043,0.82,1.091,1.582,1.688,2.373c0.78-0.834,2.08-1.596,2.193-2.506
		C125.478,418.217,124.359,417.197,123.165,415.226z M811.021,640.998c-0.059-0.465-0.124-0.916-0.181-1.38
		c-2.938,0.282-5.884,0.55-8.829,0.829c0.079,0.554,0.157,1.12,0.231,1.68C805.171,641.751,808.095,641.37,811.021,640.998z
		 M751.065,642.072c1.6,3.832,3.573,3.485,7.315-1.185C755.726,641.312,753.551,641.667,751.065,642.072z M637.406,170.052
		c-0.35-0.019-0.699-0.033-1.059-0.052c-0.62,4.814-1.248,9.625-1.873,14.443c0.178,0.017,0.362,0.041,0.539,0.061
		C635.812,179.691,636.609,174.868,637.406,170.052z M544.549,637.794c0.232,0.587,0.469,1.178,0.718,1.765
		c2.347-0.957,4.7-1.914,7.05-2.871c-0.146-0.399-0.294-0.798-0.436-1.204C549.434,636.257,546.988,637.026,544.549,637.794z
		 M501.499,644.548c1.529-1.836,2.564-3.091,4.287-5.157c-2.689,0.529-4.307,0.849-6.236,1.226
		C500.223,641.974,500.65,642.837,501.499,644.548z M260.938,530.293c0.185,0.415,0.365,0.827,0.544,1.243
		c1.226-0.416,2.758-0.54,3.54-1.365c0.436-0.46-0.373-2.099-0.842-4.166C262.583,528.12,261.762,529.209,260.938,530.293z"/>
</g>
</svg>
